Bodoni-11-Bold.ufo
<glyph name="exclam" format="2">
  <advance width="757"/>
  <unicode hex="0021"/>
  <outline>
    <contour>
      <point x="555" y="1278" type="curve" smooth="yes"/>
      <point x="533" y="986"/>
      <point x="396" y="766"/>
      <point x="396" y="516" type="curve"/>
      <point x="357" y="516" type="line"/>
      <point x="357" y="766"/>
      <point x="221" y="986"/>
      <point x="199" y="1278" type="curve" smooth="yes"/>
      <point x="198" y="1292"/>
      <point x="199" y="1304"/>
      <point x="199" y="1316" type="curve" smooth="yes"/>
      <point x="199" y="1428"/>
      <point x="253" y="1516"/>
      <point x="377" y="1516" type="curve" smooth="yes"/>
      <point x="501" y="1516"/>
      <point x="557" y="1428"/>
      <point x="557" y="1316" type="curve" smooth="yes"/>
      <point x="557" y="1304"/>
      <point x="556" y="1292"/>
    </contour>
    <component base="period" xOffset="119"/>
  </outline>
</glyph>
<glyph name="numbersign" format="2">
  <advance width="1276"/>
  <unicode hex="0023"/>
  <outline>
    <contour>
      <point x="60" y="524" type="line"/>
      <point x="1157" y="524" type="line"/>
      <point x="1157" y="484" type="line"/>
      <point x="60" y="484" type="line"/>
    </contour>
    <contour>
      <point x="120" y="1046" type="line"/>
      <point x="1217" y="1046" type="line"/>
      <point x="1217" y="1006" type="line"/>
      <point x="120" y="1006" type="line"/>
    </contour>
    <contour>
      <point x="903" y="1508" type="line"/>
      <point x="942" y="1510" type="line"/>
      <point x="743" y="-10" type="line"/>
      <point x="703" y="-12" type="line"/>
    </contour>
    <contour>
      <point x="515" y="1510" type="line"/>
      <point x="554" y="1510" type="line"/>
      <point x="354" y="-10" type="line"/>
      <point x="314" y="-10" type="line"/>
    </contour>
  </outline>
</glyph>
<glyph name="dollar" format="2">
  <advance width="1189"/>
  <unicode hex="0024"/>
  <outline>
    <contour>
      <point x="623" y="1660" type="line"/>
      <point x="668" y="1660" type="line"/>
      <point x="668" y="-160" type="line"/>
      <point x="623" y="-160" type="line"/>
    </contour>
    <contour>
      <point x="464" y="1660" type="line"/>
      <point x="509" y="1660" type="line"/>
      <point x="509" y="-160" type="line"/>
      <point x="464" y="-160" type="line"/>
    </contour>
    <contour>
      <point x="971" y="1304" type="curve"/>
      <point x="926" y="1386"/>
      <point x="792" y="1479"/>
      <point x="600" y="1479" type="curve" smooth="yes"/>
      <point x="428" y="1479"/>
      <point x="320" y="1388"/>
      <point x="320" y="1250" type="curve" smooth="yes"/>
      <point x="320" y="910"/>
      <point x="1110" y="1010"/>
      <point x="1110" y="440" type="curve" smooth="yes"/>
      <point x="1110" y="160"/>
      <point x="907" y="-30"/>
      <point x="595" y="-30" type="curve" smooth="yes"/>
      <point x="228" y="-30"/>
      <point x="55" y="160"/>
      <point x="55" y="310" type="curve" smooth="yes"/>
      <point x="55" y="422"/>
      <point x="122" y="504"/>
      <point x="230" y="504" type="curve" smooth="yes"/>
      <point x="310" y="504"/>
      <point x="388" y="440"/>
      <point x="388" y="332" type="curve" smooth="yes"/>
      <point x="388" y="232"/>
      <point x="292" y="182"/>
      <point x="214" y="182" type="curve" smooth="yes"/>
      <point x="182" y="182"/>
      <point x="147" y="193"/>
      <point x="130" y="205" type="curve"/>
      <point x="190" y="122"/>
      <point x="319" y="9"/>
      <point x="582" y="9" type="curve" smooth="yes"/>
      <point x="794" y="9"/>
      <point x="900" y="122"/>
      <point x="900" y="290" type="curve" smooth="yes"/>
      <point x="900" y="670"/>
      <point x="110" y="530"/>
      <point x="110" y="1110" type="curve" smooth="yes"/>
      <point x="110" y="1360"/>
      <point x="357" y="1520"/>
      <point x="599" y="1520" type="curve" smooth="yes"/>
      <point x="829" y="1520"/>
      <point x="1050" y="1392"/>
      <point x="1050" y="1210" type="curve" smooth="yes"/>
      <point x="1050" y="1098"/>
      <point x="988" y="1026"/>
      <point x="880" y="1026" type="curve" smooth="yes"/>
      <point x="800" y="1026"/>
      <point x="722" y="1078"/>
      <point x="722" y="1183" type="curve" smooth="yes"/>
      <point x="722" y="1280"/>
      <point x="798" y="1338"/>
      <point x="876" y="1338" type="curve" smooth="yes"/>
      <point x="904" y="1338"/>
      <point x="944" y="1328"/>
    </contour>
  </outline>
</glyph>
<glyph name="ampersand" format="2">
  <advance width="3528"/>
  <unicode hex="0026"/>
  <outline>
    <contour>
      <point x="1670" y="1875" type="curve"/>
      <point x="1627" y="1935" type="line"/>
      <point x="1743" y="2014"/>
      <point x="1908" y="2145"/>
      <point x="1908" y="2611" type="curve" smooth="yes"/>
      <point x="1908" y="2832"/>
      <point x="1854" y="3043"/>
      <point x="1624" y="3043" type="curve" smooth="yes"/>
      <point x="1400" y="3043"/>
      <point x="1316" y="2866"/>
      <point x="1316" y="2682" type="curve" smooth="yes"/>
      <point x="1316" y="2518"/>
      <point x="1438" y="2270"/>
      <point x="1614" y="2008" type="curve" smooth="yes"/>
      <point x="2889" y="81" type="line"/>
      <point x="3416" y="81" type="line"/>
      <point x="3416" y="0" type="line"/>
      <point x="2212" y="0" type="line"/>
      <point x="856" y="2008" type="line" smooth="yes"/>
      <point x="750" y="2164"/>
      <point x="668" y="2366"/>
      <point x="668" y="2510" type="curve" smooth="yes"/>
      <point x="668" y="2878"/>
      <point x="1056" y="3112"/>
      <point x="1634" y="3112" type="curve" smooth="yes"/>
      <point x="2175" y="3112"/>
      <point x="2524" y="2917"/>
      <point x="2524" y="2610" type="curve" smooth="yes"/>
      <point x="2524" y="2230"/>
      <point x="2134" y="2043"/>
    </contour>
    <contour>
      <point x="1101" y="1696" type="curve"/>
      <point x="1138" y="1636" type="line"/>
      <point x="943" y="1528"/>
      <point x="824" y="1365"/>
      <point x="824" y="1034" type="curve" smooth="yes"/>
      <point x="824" y="612"/>
      <point x="1062" y="134"/>
      <point x="1512" y="134" type="curve" smooth="yes"/>
      <point x="2198" y="134"/>
      <point x="2810" y="962"/>
      <point x="2898" y="1863" type="curve"/>
      <point x="2978" y="1863" type="line"/>
      <point x="2881" y="957"/>
      <point x="2261" y="-40"/>
      <point x="1163" y="-40" type="curve" smooth="yes"/>
      <point x="515" y="-40"/>
      <point x="159" y="274"/>
      <point x="159" y="722" type="curve" smooth="yes"/>
      <point x="159" y="1365"/>
      <point x="925" y="1614"/>
    </contour>
    <contour>
      <point x="2392" y="1884" type="line"/>
      <point x="3374" y="1884" type="line"/>
      <point x="3374" y="1803" type="line"/>
      <point x="2392" y="1803" type="line"/>
    </contour>
  </outline>
</glyph>
<glyph name="parenleft" format="2">
  <advance width="747"/>
  <unicode hex="0028"/>
  <outline>
    <contour>
      <point x="724" y="-312" type="curve"/>
      <point x="706" y="-340" type="line"/>
      <point x="380" y="-200"/>
      <point x="130" y="184"/>
      <point x="130" y="650" type="curve" smooth="yes"/>
      <point x="130" y="1116"/>
      <point x="380" y="1460"/>
      <point x="706" y="1600" type="curve"/>
      <point x="724" y="1572" type="line"/>
      <point x="526" y="1442"/>
      <point x="440" y="1034"/>
      <point x="440" y="650" type="curve" smooth="yes"/>
      <point x="440" y="266"/>
      <point x="526" y="-182"/>
    </contour>
  </outline>
</glyph>
<glyph name="comma" format="2">
  <advance width="549"/>
  <unicode hex="002C"/>
  <outline>
    <contour>
      <point x="80" y="158" type="curve" smooth="yes"/>
      <point x="80" y="254"/>
      <point x="168" y="336"/>
      <point x="274" y="336" type="curve" smooth="yes"/>
      <point x="382" y="336"/>
      <point x="474" y="244"/>
      <point x="474" y="68" type="curve" smooth="yes"/>
      <point x="474" y="-132"/>
      <point x="316" y="-308"/>
      <point x="76" y="-308" type="curve"/>
      <point x="76" y="-268" type="line"/>
      <point x="268" y="-268"/>
      <point x="434" y="-143"/>
      <point x="430" y="99" type="curve"/>
      <point x="400" y="27"/>
      <point x="325" y="-20"/>
      <point x="251" y="-20" type="curve" smooth="yes"/>
      <point x="150" y="-20"/>
      <point x="80" y="62"/>
    </contour>
  </outline>
</glyph>
<glyph name="period" format="2">
  <advance width="1064"/>
  <unicode hex="002E"/>
  <outline>
    <contour>
      <point x="164" y="328" type="curve" smooth="yes"/>
      <point x="164" y="530"/>
      <point x="331" y="696"/>
      <point x="533" y="696" type="curve" smooth="yes"/>
      <point x="735" y="696"/>
      <point x="901" y="530"/>
      <point x="901" y="328" type="curve" smooth="yes"/>
      <point x="901" y="126"/>
      <point x="735" y="-41"/>
      <point x="533" y="-41" type="curve" smooth="yes"/>
      <point x="331" y="-41"/>
      <point x="164" y="126"/>
    </contour>
  </outline>
</glyph>
<glyph name="slash" format="2">
  <advance width="1047"/>
  <unicode hex="002F"/>
  <outline>
    <contour>
      <point x="929" y="1560" type="line"/>
      <point x="969" y="1560" type="line"/>
      <point x="120" y="-300" type="line"/>
      <point x="80" y="-300" type="line"/>
    </contour>
  </outline>
</glyph>
<glyph name="two" format="2">
  <advance width="1199"/>
  <unicode hex="0032"/>
  <outline>
    <contour>
      <point x="1130" y="0" type="line"/>
      <point x="80" y="0" type="line"/>
      <point x="80" y="200" type="line"/>
      <point x="499" y="543" type="line" smooth="yes"/>
      <point x="669" y="682"/>
      <point x="768" y="842"/>
      <point x="768" y="1060" type="curve" smooth="yes"/>
      <point x="768" y="1304"/>
      <point x="652" y="1438"/>
      <point x="477" y="1438" type="curve" smooth="yes"/>
      <point x="301" y="1438"/>
      <point x="155" y="1299"/>
      <point x="148" y="1123" type="curve"/>
      <point x="173" y="1179"/>
      <point x="231" y="1224"/>
      <point x="298" y="1224" type="curve" smooth="yes"/>
      <point x="396" y="1224"/>
      <point x="476" y="1152"/>
      <point x="476" y="1052" type="curve" smooth="yes"/>
      <point x="476" y="942"/>
      <point x="380" y="869"/>
      <point x="280" y="869" type="curve" smooth="yes"/>
      <point x="180" y="869"/>
      <point x="102" y="945"/>
      <point x="102" y="1094" type="curve" smooth="yes"/>
      <point x="102" y="1328"/>
      <point x="285" y="1520"/>
      <point x="600" y="1520" type="curve" smooth="yes"/>
      <point x="912" y="1520"/>
      <point x="1088" y="1350"/>
      <point x="1088" y="1140" type="curve" smooth="yes"/>
      <point x="1088" y="910"/>
      <point x="909" y="799"/>
      <point x="761" y="688" type="curve" smooth="yes"/>
      <point x="294" y="300" type="line"/>
      <point x="1090" y="300" type="line"/>
      <point x="1090" y="450" type="line"/>
      <point x="1130" y="450" type="line"/>
    </contour>
  </outline>
</glyph>
<glyph name="three" format="2">
  <advance width="1141"/>
  <unicode hex="0033"/>
  <outline>
    <contour>
      <point x="1062" y="410" type="curve" smooth="yes"/>
      <point x="1062" y="140"/>
      <point x="813" y="-20"/>
      <point x="511" y="-20" type="curve" smooth="yes"/>
      <point x="197" y="-20"/>
      <point x="49" y="157"/>
      <point x="49" y="321" type="curve" smooth="yes"/>
      <point x="49" y="433"/>
      <point x="124" y="506"/>
      <point x="224" y="506" type="curve" smooth="yes"/>
      <point x="314" y="506"/>
      <point x="382" y="442"/>
      <point x="382" y="340" type="curve" smooth="yes"/>
      <point x="382" y="246"/>
      <point x="301" y="180"/>
      <point x="213" y="180" type="curve" smooth="yes"/>
      <point x="166" y="180"/>
      <point x="135" y="198"/>
      <point x="123" y="207" type="curve"/>
      <point x="165" y="123"/>
      <point x="279" y="33"/>
      <point x="456" y="33" type="curve" smooth="yes"/>
      <point x="674" y="33"/>
      <point x="739" y="192"/>
      <point x="739" y="410" type="curve" smooth="yes"/>
      <point x="739" y="588"/>
      <point x="684" y="792"/>
      <point x="396" y="792" type="curve"/>
      <point x="396" y="818" type="line"/>
      <point x="898" y="818"/>
      <point x="1062" y="640"/>
    </contour>
    <contour>
      <point x="396" y="803" type="curve"/>
      <point x="396" y="830" type="line"/>
      <point x="664" y="830"/>
      <point x="680" y="1044"/>
      <point x="680" y="1182" type="curve" smooth="yes"/>
      <point x="680" y="1340"/>
      <point x="615" y="1468"/>
      <point x="477" y="1468" type="curve" smooth="yes"/>
      <point x="367" y="1468"/>
      <point x="258" y="1414"/>
      <point x="217" y="1354" type="curve"/>
      <point x="231" y="1365"/>
      <point x="262" y="1368"/>
      <point x="283" y="1368" type="curve" smooth="yes"/>
      <point x="361" y="1368"/>
      <point x="438" y="1309"/>
      <point x="438" y="1214" type="curve" smooth="yes"/>
      <point x="438" y="1109"/>
      <point x="353" y="1047"/>
      <point x="273" y="1047" type="curve" smooth="yes"/>
      <point x="183" y="1047"/>
      <point x="109" y="1104"/>
      <point x="109" y="1211" type="curve" smooth="yes"/>
      <point x="109" y="1385"/>
      <point x="317" y="1518"/>
      <point x="521" y="1518" type="curve" smooth="yes"/>
      <point x="783" y="1518"/>
      <point x="1001" y="1392"/>
      <point x="1001" y="1172" type="curve" smooth="yes"/>
      <point x="1001" y="972"/>
      <point x="878" y="803"/>
    </contour>
  </outline>
</glyph>
<glyph name="four" format="2">
  <advance width="1279"/>
  <unicode hex="0034"/>
  <outline>
    <contour>
      <point x="1190" y="40" type="line"/>
      <point x="1190" y="0" type="line"/>
      <point x="540" y="0" type="line"/>
      <point x="540" y="40" type="line"/>
      <point x="730" y="40" type="line"/>
      <point x="730" y="1312" type="line"/>
      <point x="143" y="450" type="line"/>
      <point x="1260" y="450" type="line"/>
      <point x="1260" y="410" type="line"/>
      <point x="67" y="410" type="line"/>
      <point x="810" y="1500" type="line"/>
      <point x="1040" y="1500" type="line"/>
      <point x="1040" y="40" type="line"/>
    </contour>
  </outline>
</glyph>
<glyph name="five" format="2">
  <advance width="1069"/>
  <unicode hex="0035"/>
  <outline>
    <contour>
      <point x="940" y="1200" type="line"/>
      <point x="153" y="1200" type="line"/>
      <point x="153" y="714" type="line"/>
      <point x="114" y="714" type="line"/>
      <point x="114" y="1500" type="line"/>
      <point x="900" y="1500" type="line"/>
      <point x="900" y="1610" type="line"/>
      <point x="940" y="1610" type="line"/>
    </contour>
    <contour>
      <point x="124" y="133" type="curve"/>
      <point x="167" y="78"/>
      <point x="274" y="26"/>
      <point x="382" y="26" type="curve" smooth="yes"/>
      <point x="600" y="26"/>
      <point x="680" y="217"/>
      <point x="680" y="445" type="curve" smooth="yes"/>
      <point x="680" y="713"/>
      <point x="599" y="852"/>
      <point x="431" y="852" type="curve" smooth="yes"/>
      <point x="296" y="852"/>
      <point x="205" y="785"/>
      <point x="165" y="714" type="curve"/>
      <point x="129" y="714" type="line"/>
      <point x="171" y="808"/>
      <point x="292" y="910"/>
      <point x="504" y="910" type="curve" smooth="yes"/>
      <point x="806" y="910"/>
      <point x="1010" y="745"/>
      <point x="1010" y="445" type="curve" smooth="yes"/>
      <point x="1010" y="175"/>
      <point x="764" y="-20"/>
      <point x="432" y="-20" type="curve" smooth="yes"/>
      <point x="218" y="-20"/>
      <point x="20" y="94"/>
      <point x="20" y="278" type="curve" smooth="yes"/>
      <point x="20" y="390"/>
      <point x="99" y="462"/>
      <point x="194" y="462" type="curve" smooth="yes"/>
      <point x="284" y="462"/>
      <point x="368" y="405"/>
      <point x="368" y="295" type="curve" smooth="yes"/>
      <point x="368" y="195"/>
      <point x="282" y="120"/>
      <point x="194" y="120" type="curve" smooth="yes"/>
      <point x="174" y="120"/>
      <point x="144" y="124"/>
    </contour>
  </outline>
</glyph>
<glyph name="six" format="2">
  <advance width="1219"/>
  <unicode hex="0036"/>
  <outline>
    <contour>
      <point x="830" y="500" type="curve" smooth="yes"/>
      <point x="830" y="818"/>
      <point x="756" y="924"/>
      <point x="628" y="924" type="curve" smooth="yes"/>
      <point x="502" y="924"/>
      <point x="430" y="820"/>
      <point x="430" y="560" type="curve"/>
      <point x="399" y="560" type="line"/>
      <point x="399" y="804"/>
      <point x="450" y="985"/>
      <point x="692" y="985" type="curve" smooth="yes"/>
      <point x="914" y="985"/>
      <point x="1160" y="840"/>
      <point x="1160" y="500" type="curve" smooth="yes"/>
      <point x="1160" y="200"/>
      <point x="960" y="-20"/>
      <point x="638" y="-20" type="curve" smooth="yes"/>
      <point x="316" y="-20"/>
      <point x="100" y="200"/>
      <point x="100" y="620" type="curve" smooth="yes"/>
      <point x="100" y="1106"/>
      <point x="484" y="1520"/>
      <point x="1010" y="1520" type="curve"/>
      <point x="1010" y="1484" type="line"/>
      <point x="652" y="1484"/>
      <point x="428" y="1092"/>
      <point x="428" y="718" type="curve"/>
      <point x="430" y="560" type="line"/>
      <point x="430" y="242"/>
      <point x="486" y="20"/>
      <point x="644" y="20" type="curve" smooth="yes"/>
      <point x="802" y="20"/>
      <point x="830" y="222"/>
    </contour>
  </outline>
</glyph>
<glyph name="seven" format="2">
  <advance width="1079"/>
  <unicode hex="0037"/>
  <outline>
    <contour>
      <point x="296" y="182" type="curve" smooth="yes"/>
      <point x="296" y="340"/>
      <point x="461" y="531"/>
      <point x="598" y="746" type="curve" smooth="yes"/>
      <point x="669" y="862"/>
      <point x="749" y="1016"/>
      <point x="841" y="1190" type="curve"/>
      <point x="120" y="1190" type="line"/>
      <point x="120" y="1040" type="line"/>
      <point x="80" y="1040" type="line"/>
      <point x="80" y="1500" type="line"/>
      <point x="1060" y="1500" type="line"/>
      <point x="1060" y="1500"/>
      <point x="811" y="1019"/>
      <point x="656" y="756" type="curve" smooth="yes"/>
      <point x="557" y="586"/>
      <point x="545" y="542"/>
      <point x="545" y="464" type="curve" smooth="yes"/>
      <point x="545" y="338"/>
      <point x="676" y="308"/>
      <point x="676" y="166" type="curve" smooth="yes"/>
      <point x="676" y="62"/>
      <point x="606" y="-20"/>
      <point x="488" y="-20" type="curve" smooth="yes"/>
      <point x="380" y="-20"/>
      <point x="296" y="38"/>
    </contour>
  </outline>
</glyph>
<glyph name="eight" format="2">
  <advance width="1199"/>
  <unicode hex="0038"/>
  <outline>
    <contour>
      <point x="440" y="1120" type="curve" smooth="yes"/>
      <point x="440" y="902"/>
      <point x="482" y="791"/>
      <point x="600" y="791" type="curve" smooth="yes"/>
      <point x="718" y="791"/>
      <point x="760" y="902"/>
      <point x="760" y="1120" type="curve" smooth="yes"/>
      <point x="760" y="1328"/>
      <point x="718" y="1480"/>
      <point x="600" y="1480" type="curve" smooth="yes"/>
      <point x="482" y="1480"/>
      <point x="440" y="1328"/>
    </contour>
    <contour>
      <point x="120" y="1120" type="curve" smooth="yes"/>
      <point x="120" y="1340"/>
      <point x="288" y="1520"/>
      <point x="600" y="1520" type="curve" smooth="yes"/>
      <point x="912" y="1520"/>
      <point x="1080" y="1340"/>
      <point x="1080" y="1120" type="curve" smooth="yes"/>
      <point x="1080" y="900"/>
      <point x="912" y="762"/>
      <point x="600" y="762" type="curve" smooth="yes"/>
      <point x="288" y="762"/>
      <point x="120" y="900"/>
    </contour>
    <contour>
      <point x="400" y="380" type="curve" smooth="yes"/>
      <point x="400" y="172"/>
      <point x="452" y="20"/>
      <point x="600" y="20" type="curve" smooth="yes"/>
      <point x="748" y="20"/>
      <point x="800" y="172"/>
      <point x="800" y="380" type="curve" smooth="yes"/>
      <point x="800" y="588"/>
      <point x="748" y="750"/>
      <point x="600" y="750" type="curve" smooth="yes"/>
      <point x="452" y="750"/>
      <point x="400" y="588"/>
    </contour>
    <contour>
      <point x="80" y="380" type="curve" smooth="yes"/>
      <point x="80" y="620"/>
      <point x="248" y="778"/>
      <point x="600" y="778" type="curve" smooth="yes"/>
      <point x="952" y="778"/>
      <point x="1120" y="620"/>
      <point x="1120" y="380" type="curve" smooth="yes"/>
      <point x="1120" y="140"/>
      <point x="952" y="-20"/>
      <point x="600" y="-20" type="curve" smooth="yes"/>
      <point x="248" y="-20"/>
      <point x="80" y="140"/>
    </contour>
  </outline>
</glyph>
<glyph name="less" format="2">
  <advance width="1119"/>
  <unicode hex="003C"/>
  <outline>
    <contour>
      <point x="120" y="759" type="line"/>
      <point x="120" y="800" type="line"/>
      <point x="1000" y="1211" type="line"/>
      <point x="1000" y="1170" type="line"/>
    </contour>
    <contour>
      <point x="120" y="750" type="line"/>
      <point x="120" y="792" type="line"/>
      <point x="1000" y="380" type="line"/>
      <point x="1000" y="339" type="line"/>
    </contour>
  </outline>
</glyph>
<glyph name="question" format="2">
  <advance width="1169"/>
  <unicode hex="003F"/>
  <outline>
    <contour>
      <point x="484" y="721" type="line"/>
      <point x="668" y="778"/>
      <point x="748" y="934"/>
      <point x="748" y="1120" type="curve" smooth="yes"/>
      <point x="748" y="1308"/>
      <point x="713" y="1470"/>
      <point x="515" y="1470" type="curve" smooth="yes"/>
      <point x="353" y="1470"/>
      <point x="225" y="1353"/>
      <point x="193" y="1272" type="curve"/>
      <point x="204" y="1280"/>
      <point x="234" y="1300"/>
      <point x="281" y="1300" type="curve" smooth="yes"/>
      <point x="369" y="1300"/>
      <point x="448" y="1245"/>
      <point x="448" y="1150" type="curve" smooth="yes"/>
      <point x="448" y="1045"/>
      <point x="374" y="988"/>
      <point x="284" y="988" type="curve" smooth="yes"/>
      <point x="184" y="988"/>
      <point x="120" y="1055"/>
      <point x="120" y="1162" type="curve" smooth="yes"/>
      <point x="120" y="1336"/>
      <point x="308" y="1520"/>
      <point x="572" y="1520" type="curve" smooth="yes"/>
      <point x="874" y="1520"/>
      <point x="1070" y="1360"/>
      <point x="1070" y="1120" type="curve" smooth="yes"/>
      <point x="1070" y="890"/>
      <point x="856" y="715"/>
      <point x="524" y="697" type="curve"/>
      <point x="524" y="488" type="line"/>
      <point x="484" y="488" type="line"/>
    </contour>
    <component base="period" xOffset="278"/>
  </outline>
</glyph>
<glyph name="at" format="2">
  <advance width="2019"/>
  <unicode hex="0040"/>
  <outline>
    <contour>
      <point x="1188" y="718" type="curve" smooth="yes"/>
      <point x="1188" y="394"/>
      <point x="1023" y="140"/>
      <point x="793" y="140" type="curve" smooth="yes"/>
      <point x="620" y="140"/>
      <point x="488" y="252"/>
      <point x="488" y="460" type="curve" smooth="yes"/>
      <point x="488" y="760"/>
      <point x="707" y="1058"/>
      <point x="960" y="1058" type="curve" smooth="yes"/>
      <point x="1137" y="1058"/>
      <point x="1188" y="882"/>
    </contour>
    <contour>
      <point x="1153" y="692" type="curve" smooth="yes"/>
      <point x="1153" y="776"/>
      <point x="1136" y="958"/>
      <point x="1046" y="958" type="curve" smooth="yes"/>
      <point x="939" y="958"/>
      <point x="810" y="737"/>
      <point x="810" y="489" type="curve" smooth="yes"/>
      <point x="810" y="355"/>
      <point x="840" y="243"/>
      <point x="928" y="243" type="curve" smooth="yes"/>
      <point x="1020" y="243"/>
      <point x="1153" y="446"/>
    </contour>
    <contour>
      <point x="1110" y="420" type="curve" smooth="yes"/>
      <point x="1254" y="1040" type="line"/>
      <point x="1554" y="1040" type="line"/>
      <point x="1408" y="413" type="line" smooth="yes"/>
      <point x="1394" y="351"/>
      <point x="1339" y="199"/>
      <point x="1455" y="199" type="curve" smooth="yes"/>
      <point x="1668" y="199"/>
      <point x="1871" y="478"/>
      <point x="1871" y="802" type="curve" smooth="yes"/>
      <point x="1871" y="1154"/>
      <point x="1656" y="1541"/>
      <point x="1168" y="1541" type="curve" smooth="yes"/>
      <point x="609" y="1541"/>
      <point x="150" y="1027"/>
      <point x="150" y="422" type="curve" smooth="yes"/>
      <point x="150" y="-180"/>
      <point x="490" y="-388"/>
      <point x="838" y="-388" type="curve" smooth="yes"/>
      <point x="1161" y="-388"/>
      <point x="1365" y="-296"/>
      <point x="1542" y="-101" type="curve"/>
      <point x="1570" y="-128" type="line"/>
      <point x="1402" y="-324"/>
      <point x="1164" y="-428"/>
      <point x="838" y="-428" type="curve" smooth="yes"/>
      <point x="472" y="-428"/>
      <point x="110" y="-205"/>
      <point x="110" y="422" type="curve" smooth="yes"/>
      <point x="110" y="1048"/>
      <point x="584" y="1580"/>
      <point x="1170" y="1580" type="curve" smooth="yes"/>
      <point x="1676" y="1580"/>
      <point x="1910" y="1168"/>
      <point x="1910" y="802" type="curve" smooth="yes"/>
      <point x="1910" y="472"/>
      <point x="1724" y="136"/>
      <point x="1352" y="136" type="curve" smooth="yes"/>
      <point x="1114" y="136"/>
      <point x="1082" y="296"/>
    </contour>
  </outline>
</glyph>
<glyph name="A" format="2">
  <advance width="1601"/>
  <unicode hex="0041"/>
  <outline>
    <contour>
      <point x="46" y="40" type="line"/>
      <point x="486" y="40" type="line"/>
      <point x="486" y="0" type="line"/>
      <point x="46" y="0" type="line"/>
    </contour>
    <contour>
      <point x="876" y="40" type="line"/>
      <point x="1556" y="40" type="line"/>
      <point x="1556" y="0" type="line"/>
      <point x="876" y="0" type="line"/>
    </contour>
    <contour>
      <point x="400" y="509" type="line"/>
      <point x="1055" y="509" type="line"/>
      <point x="1055" y="470" type="line"/>
      <point x="400" y="470" type="line"/>
    </contour>
    <contour>
      <point x="669" y="1191" type="line"/>
      <point x="252" y="0" type="line"/>
      <point x="205" y="0" type="line"/>
      <point x="745" y="1530" type="line"/>
      <point x="885" y="1530" type="line"/>
      <point x="1415" y="0" type="line"/>
      <point x="1055" y="0" type="line"/>
    </contour>
  </outline>
</glyph>
<glyph name="B" format="2">
  <advance width="1420"/>
  <unicode hex="0042"/>
  <outline>
    <contour>
      <point x="726" y="762" type="curve" smooth="yes"/>
      <point x="486" y="762" type="line"/>
      <point x="486" y="790" type="line"/>
      <point x="686" y="790" type="line" smooth="yes"/>
      <point x="828" y="790"/>
      <point x="946" y="872"/>
      <point x="946" y="1110" type="curve" smooth="yes"/>
      <point x="946" y="1348"/>
      <point x="828" y="1460"/>
      <point x="686" y="1460" type="curve" smooth="yes"/>
      <point x="46" y="1460" type="line"/>
      <point x="46" y="1500" type="line"/>
      <point x="726" y="1500" type="line" smooth="yes"/>
      <point x="1058" y="1500"/>
      <point x="1266" y="1390"/>
      <point x="1266" y="1130" type="curve" smooth="yes"/>
      <point x="1266" y="880"/>
      <point x="1078" y="762"/>
    </contour>
    <contour>
      <point x="226" y="1500" type="line"/>
      <point x="536" y="1500" type="line"/>
      <point x="536" y="0" type="line"/>
      <point x="226" y="0" type="line"/>
    </contour>
    <contour>
      <point x="766" y="0" type="curve" smooth="yes"/>
      <point x="46" y="0" type="line"/>
      <point x="46" y="40" type="line"/>
      <point x="706" y="40" type="line" smooth="yes"/>
      <point x="868" y="40"/>
      <point x="986" y="182"/>
      <point x="986" y="420" type="curve" smooth="yes"/>
      <point x="986" y="658"/>
      <point x="868" y="750"/>
      <point x="706" y="750" type="curve" smooth="yes"/>
      <point x="486" y="750" type="line"/>
      <point x="486" y="778" type="line"/>
      <point x="766" y="778" type="line" smooth="yes"/>
      <point x="1078" y="778"/>
      <point x="1326" y="680"/>
      <point x="1326" y="400" type="curve" smooth="yes"/>
      <point x="1326" y="110"/>
      <point x="1118" y="0"/>
    </contour>
  </outline>
</glyph>
<glyph name="C" format="2">
  <advance width="1450"/>
  <unicode hex="0043"/>
  <outline>
    <contour>
      <point x="1292" y="1500" type="line"/>
      <point x="1324" y="1500" type="line"/>
      <point x="1324" y="1060" type="line"/>
      <point x="1263" y="1181"/>
      <point x="1196" y="1302"/>
      <point x="1116" y="1391" type="curve"/>
    </contour>
    <contour>
      <point x="1324" y="1060" type="curve"/>
      <point x="1284" y="1060" type="line"/>
      <point x="1199" y="1309"/>
      <point x="1048" y="1466"/>
      <point x="835" y="1466" type="curve" smooth="yes"/>
      <point x="537" y="1466"/>
      <point x="445" y="1114"/>
      <point x="445" y="750" type="curve" smooth="yes"/>
      <point x="445" y="386"/>
      <point x="537" y="34"/>
      <point x="835" y="34" type="curve" smooth="yes"/>
      <point x="1101" y="34"/>
      <point x="1219" y="211"/>
      <point x="1304" y="440" type="curve"/>
      <point x="1344" y="440" type="line"/>
      <point x="1284" y="174"/>
      <point x="1101" y="-20"/>
      <point x="815" y="-20" type="curve" smooth="yes"/>
      <point x="369" y="-20"/>
      <point x="95" y="304"/>
      <point x="95" y="750" type="curve" smooth="yes"/>
      <point x="95" y="1196"/>
      <point x="369" y="1520"/>
      <point x="815" y="1520" type="curve" smooth="yes"/>
      <point x="1071" y="1520"/>
      <point x="1254" y="1326"/>
    </contour>
    <contour>
      <point x="1344" y="440" type="curve"/>
      <point x="1344" y="0" type="line"/>
      <point x="1312" y="0" type="line"/>
      <point x="1138" y="117" type="line"/>
      <point x="1218" y="211"/>
      <point x="1287" y="310"/>
    </contour>
  </outline>
</glyph>
<glyph name="D" format="2">
  <advance width="1541"/>
  <unicode hex="0044"/>
  <outline>
    <contour>
      <point x="226" y="1500" type="line"/>
      <point x="536" y="1500" type="line"/>
      <point x="536" y="0" type="line"/>
      <point x="226" y="0" type="line"/>
    </contour>
    <contour>
      <point x="686" y="0" type="curve" smooth="yes"/>
      <point x="46" y="0" type="line"/>
      <point x="46" y="40" type="line"/>
      <point x="686" y="40" type="line" smooth="yes"/>
      <point x="994" y="40"/>
      <point x="1096" y="356"/>
      <point x="1096" y="750" type="curve" smooth="yes"/>
      <point x="1096" y="1144"/>
      <point x="974" y="1460"/>
      <point x="686" y="1460" type="curve" smooth="yes"/>
      <point x="46" y="1460" type="line"/>
      <point x="46" y="1500" type="line"/>
      <point x="686" y="1500" type="line" smooth="yes"/>
      <point x="1162" y="1500"/>
      <point x="1446" y="1196"/>
      <point x="1446" y="750" type="curve" smooth="yes"/>
      <point x="1446" y="304"/>
      <point x="1142" y="0"/>
    </contour>
  </outline>
</glyph>
<glyph name="E" format="2">
  <advance width="1288"/>
  <unicode hex="0045"/>
  <outline>
    <contour>
      <point x="1175" y="450" type="curve"/>
      <point x="1215" y="450" type="line"/>
      <point x="1215" y="0" type="line"/>
      <point x="46" y="0" type="line"/>
      <point x="46" y="40" type="line"/>
      <point x="746" y="40" type="line" smooth="yes"/>
      <point x="1020" y="40"/>
      <point x="1145" y="196"/>
    </contour>
    <contour>
      <point x="226" y="1500" type="line"/>
      <point x="536" y="1500" type="line"/>
      <point x="536" y="0" type="line"/>
      <point x="226" y="0" type="line"/>
    </contour>
    <contour>
      <point x="46" y="1500" type="line"/>
      <point x="1194" y="1500" type="line"/>
      <point x="1194" y="1090" type="line"/>
      <point x="1155" y="1090" type="line"/>
      <point x="1125" y="1304"/>
      <point x="1000" y="1460"/>
      <point x="766" y="1460" type="curve" smooth="yes"/>
      <point x="46" y="1460" type="line"/>
    </contour>
    <contour>
      <point x="845" y="526" type="line"/>
      <point x="815" y="660"/>
      <point x="720" y="756"/>
      <point x="606" y="756" type="curve" smooth="yes"/>
      <point x="466" y="756" type="line"/>
      <point x="466" y="796" type="line"/>
      <point x="606" y="796" type="line" smooth="yes"/>
      <point x="720" y="796"/>
      <point x="815" y="882"/>
      <point x="845" y="1016" type="curve"/>
      <point x="885" y="1016" type="line"/>
      <point x="885" y="526" type="line"/>
    </contour>
  </outline>
</glyph>
<glyph name="F" format="2">
  <advance width="1238"/>
  <unicode hex="0046"/>
  <outline>
    <contour>
      <point x="46" y="1500" type="line"/>
      <point x="1165" y="1500" type="line"/>
      <point x="1165" y="1090" type="line"/>
      <point x="1125" y="1090" type="line"/>
      <point x="1095" y="1304"/>
      <point x="990" y="1460"/>
      <point x="766" y="1460" type="curve" smooth="yes"/>
      <point x="46" y="1460" type="line"/>
    </contour>
    <contour>
      <point x="46" y="40" type="line"/>
      <point x="736" y="40" type="line"/>
      <point x="736" y="0" type="line"/>
      <point x="46" y="0" type="line"/>
    </contour>
    <contour>
      <point x="226" y="1500" type="line"/>
      <point x="536" y="1500" type="line"/>
      <point x="536" y="0" type="line"/>
      <point x="226" y="0" type="line"/>
    </contour>
    <contour>
      <point x="845" y="496" type="line"/>
      <point x="815" y="630"/>
      <point x="740" y="727"/>
      <point x="586" y="727" type="curve" smooth="yes"/>
      <point x="456" y="727" type="line"/>
      <point x="456" y="766" type="line"/>
      <point x="586" y="766" type="line" smooth="yes"/>
      <point x="740" y="766"/>
      <point x="815" y="852"/>
      <point x="845" y="986" type="curve"/>
      <point x="885" y="986" type="line"/>
      <point x="885" y="496" type="line"/>
    </contour>
  </outline>
</glyph>
<glyph name="G" format="2">
  <advance width="1539"/>
  <unicode hex="0047"/>
  <outline>
    <contour>
      <point x="1364" y="1060" type="line"/>
      <point x="1330" y="1184"/>
      <point x="1215" y="1321"/>
      <point x="1136" y="1401" type="curve"/>
      <point x="1332" y="1500" type="line"/>
      <point x="1364" y="1500" type="line"/>
    </contour>
    <contour>
      <point x="865" y="591" type="line"/>
      <point x="1505" y="591" type="line"/>
      <point x="1505" y="549" type="line"/>
      <point x="865" y="549" type="line"/>
    </contour>
    <contour>
      <point x="1075" y="562" type="line"/>
      <point x="1405" y="562" type="line"/>
      <point x="1405" y="310" type="line"/>
      <point x="1275" y="174"/>
      <point x="1132" y="-20"/>
      <point x="806" y="-20" type="curve" smooth="yes"/>
      <point x="360" y="-20"/>
      <point x="95" y="284"/>
      <point x="95" y="750" type="curve" smooth="yes"/>
      <point x="95" y="1216"/>
      <point x="429" y="1520"/>
      <point x="835" y="1520" type="curve" smooth="yes"/>
      <point x="1091" y="1520"/>
      <point x="1364" y="1306"/>
      <point x="1364" y="1060" type="curve"/>
      <point x="1324" y="1060" type="line"/>
      <point x="1279" y="1270"/>
      <point x="1098" y="1466"/>
      <point x="865" y="1466" type="curve" smooth="yes"/>
      <point x="567" y="1466"/>
      <point x="445" y="1114"/>
      <point x="445" y="750" type="curve" smooth="yes"/>
      <point x="445" y="386"/>
      <point x="518" y="30"/>
      <point x="806" y="30" type="curve" smooth="yes"/>
      <point x="974" y="30"/>
      <point x="1045" y="166"/>
      <point x="1075" y="250" type="curve"/>
    </contour>
  </outline>
</glyph>
<glyph name="H" format="2">
  <advance width="1611"/>
  <unicode hex="0048"/>
  <outline>
    <contour>
      <point x="496" y="760" type="line"/>
      <point x="1116" y="760" type="line"/>
      <point x="1116" y="721" type="line"/>
      <point x="496" y="721" type="line"/>
    </contour>
    <contour>
      <point x="896" y="40" type="line"/>
      <point x="1566" y="40" type="line"/>
      <point x="1566" y="0" type="line"/>
      <point x="896" y="0" type="line"/>
    </contour>
    <contour>
      <point x="46" y="40" type="line"/>
      <point x="716" y="40" type="line"/>
      <point x="716" y="0" type="line"/>
      <point x="46" y="0" type="line"/>
    </contour>
    <contour>
      <point x="896" y="1500" type="line"/>
      <point x="1566" y="1500" type="line"/>
      <point x="1566" y="1460" type="line"/>
      <point x="896" y="1460" type="line"/>
    </contour>
    <contour>
      <point x="46" y="1500" type="line"/>
      <point x="716" y="1500" type="line"/>
      <point x="716" y="1460" type="line"/>
      <point x="46" y="1460" type="line"/>
    </contour>
    <contour>
      <point x="1076" y="1500" type="line"/>
      <point x="1386" y="1500" type="line"/>
      <point x="1386" y="0" type="line"/>
      <point x="1076" y="0" type="line"/>
    </contour>
    <contour>
      <point x="226" y="1500" type="line"/>
      <point x="536" y="1500" type="line"/>
      <point x="536" y="0" type="line"/>
      <point x="226" y="0" type="line"/>
    </contour>
  </outline>
</glyph>
<glyph name="I" format="2">
  <advance width="861"/>
  <unicode hex="0049"/>
  <outline>
    <contour>
      <point x="46" y="40" type="line"/>
      <point x="816" y="40" type="line"/>
      <point x="816" y="0" type="line"/>
      <point x="46" y="0" type="line"/>
    </contour>
    <contour>
      <point x="46" y="1500" type="line"/>
      <point x="816" y="1500" type="line"/>
      <point x="816" y="1460" type="line"/>
      <point x="46" y="1460" type="line"/>
    </contour>
    <contour>
      <point x="266" y="1500" type="line"/>
      <point x="576" y="1500" type="line"/>
      <point x="576" y="0" type="line"/>
      <point x="266" y="0" type="line"/>
    </contour>
  </outline>
</glyph>
<glyph name="J" format="2">
  <advance width="1096"/>
  <unicode hex="004A"/>
  <outline>
    <contour>
      <point x="280" y="1500" type="line"/>
      <point x="1050" y="1500" type="line"/>
      <point x="1050" y="1460" type="line"/>
      <point x="280" y="1460" type="line"/>
    </contour>
    <contour>
      <point x="540" y="1500" type="line"/>
      <point x="851" y="1500" type="line"/>
      <point x="851" y="340" type="line"/>
      <point x="771" y="150"/>
      <point x="661" y="-60"/>
      <point x="373" y="-60" type="curve" smooth="yes"/>
      <point x="169" y="-60"/>
      <point x="38" y="56"/>
      <point x="38" y="206" type="curve" smooth="yes"/>
      <point x="38" y="320"/>
      <point x="122" y="396"/>
      <point x="222" y="396" type="curve" smooth="yes"/>
      <point x="312" y="396"/>
      <point x="395" y="330"/>
      <point x="395" y="218" type="curve" smooth="yes"/>
      <point x="395" y="124"/>
      <point x="318" y="47"/>
      <point x="228" y="47" type="curve" smooth="yes"/>
      <point x="194" y="47"/>
      <point x="167" y="55"/>
      <point x="147" y="61" type="curve"/>
      <point x="186" y="16"/>
      <point x="265" y="-19"/>
      <point x="360" y="-19" type="curve" smooth="yes"/>
      <point x="507" y="-19"/>
      <point x="540" y="100"/>
      <point x="540" y="380" type="curve" smooth="yes"/>
    </contour>
  </outline>
</glyph>
<glyph name="K" format="2">
  <advance width="3195"/>
  <unicode hex="004B"/>
  <outline>
    <contour>
      <point x="94" y="82" type="line"/>
      <point x="1466" y="82" type="line"/>
      <point x="1466" y="0" type="line"/>
      <point x="94" y="0" type="line"/>
    </contour>
    <contour>
      <point x="94" y="3072" type="line"/>
      <point x="1508" y="3072" type="line"/>
      <point x="1508" y="2990" type="line"/>
      <point x="94" y="2990" type="line"/>
    </contour>
    <contour>
      <point x="463" y="3072" type="line"/>
      <point x="1098" y="3072" type="line"/>
      <point x="1098" y="0" type="line"/>
      <point x="463" y="0" type="line"/>
    </contour>
    <contour>
      <point x="736" y="889" type="line"/>
      <point x="615" y="889" type="line"/>
      <point x="2474" y="3064" type="line"/>
      <point x="2596" y="3064" type="line"/>
    </contour>
    <contour>
      <point x="1672" y="82" type="line"/>
      <point x="3146" y="82" type="line"/>
      <point x="3146" y="0" type="line"/>
      <point x="1672" y="0" type="line"/>
    </contour>
    <contour>
      <point x="2961" y="2990" type="line"/>
      <point x="1978" y="2990" type="line"/>
      <point x="1978" y="3072" type="line"/>
      <point x="2961" y="3072" type="line"/>
    </contour>
    <contour>
      <point x="2826" y="0" type="line"/>
      <point x="2089" y="0" type="line"/>
      <point x="1210" y="1543" type="line"/>
      <point x="1632" y="2014" type="line"/>
    </contour>
  </outline>
</glyph>
<glyph name="L" format="2">
  <advance width="1263"/>
  <unicode hex="004C"/>
  <outline>
    <contour>
      <point x="226" y="1500" type="line"/>
      <point x="536" y="1500" type="line"/>
      <point x="536" y="0" type="line"/>
      <point x="226" y="0" type="line"/>
    </contour>
    <contour>
      <point x="46" y="1500" type="line"/>
      <point x="716" y="1500" type="line"/>
      <point x="716" y="1460" type="line"/>
      <point x="46" y="1460" type="line"/>
    </contour>
    <contour>
      <point x="1209" y="0" type="line"/>
      <point x="46" y="0" type="line"/>
      <point x="46" y="40" type="line"/>
      <point x="741" y="40" type="line" smooth="yes"/>
      <point x="1035" y="40"/>
      <point x="1140" y="196"/>
      <point x="1170" y="450" type="curve"/>
      <point x="1209" y="450" type="line"/>
    </contour>
  </outline>
</glyph>
<glyph name="M" format="2">
  <advance width="1812"/>
  <unicode hex="004D"/>
  <outline>
    <contour>
      <point x="1767" y="1500" type="line"/>
      <point x="1767" y="1460" type="line"/>
      <point x="1627" y="1460" type="line"/>
      <point x="1627" y="0" type="line"/>
      <point x="1316" y="0" type="line"/>
      <point x="1316" y="1500" type="line"/>
    </contour>
    <contour>
      <point x="56" y="40" type="line"/>
      <point x="384" y="40" type="line"/>
      <point x="384" y="0" type="line"/>
      <point x="56" y="0" type="line"/>
    </contour>
    <contour>
      <point x="1157" y="40" type="line"/>
      <point x="1767" y="40" type="line"/>
      <point x="1767" y="0" type="line"/>
      <point x="1157" y="0" type="line"/>
    </contour>
    <contour>
      <point x="920" y="423" type="line"/>
      <point x="1290" y="1500" type="line"/>
      <point x="1332" y="1500" type="line"/>
      <point x="813" y="-20" type="line"/>
      <point x="767" y="-20" type="line"/>
      <point x="211" y="1500" type="line"/>
      <point x="522" y="1500" type="line"/>
    </contour>
    <contour>
      <point x="197" y="1460" type="line"/>
      <point x="46" y="1460" type="line"/>
      <point x="46" y="1500" type="line"/>
      <point x="240" y="1500" type="line"/>
      <point x="240" y="0" type="line"/>
      <point x="197" y="0" type="line"/>
    </contour>
  </outline>
</glyph>
<glyph name="N" format="2">
  <advance width="3192"/>
  <unicode hex="004E"/>
  <outline>
    <contour>
      <point x="2581" y="3072" type="line"/>
      <point x="2668" y="3072" type="line"/>
      <point x="2668" y="-41" type="line"/>
      <point x="2540" y="-41" type="line"/>
      <point x="522" y="3072" type="line"/>
      <point x="1280" y="3072" type="line"/>
      <point x="2581" y="1048" type="line"/>
    </contour>
    <contour>
      <point x="2120" y="3072" type="line"/>
      <point x="3098" y="3072" type="line"/>
      <point x="3098" y="2990" type="line"/>
      <point x="2120" y="2990" type="line"/>
    </contour>
    <contour>
      <point x="94" y="82" type="line"/>
      <point x="1084" y="82" type="line"/>
      <point x="1084" y="0" type="line"/>
      <point x="94" y="0" type="line"/>
    </contour>
    <contour>
      <point x="519" y="2990" type="line"/>
      <point x="94" y="2990" type="line"/>
      <point x="94" y="3072" type="line"/>
      <point x="606" y="3072" type="line"/>
      <point x="606" y="0" type="line"/>
      <point x="519" y="0" type="line"/>
    </contour>
  </outline>
</glyph>
<glyph name="O" format="2">
  <advance width="1549"/>
  <unicode hex="004F"/>
  <outline>
    <contour>
      <point x="775" y="-20" type="curve" smooth="yes"/>
      <point x="349" y="-20"/>
      <point x="95" y="314"/>
      <point x="95" y="750" type="curve" smooth="yes"/>
      <point x="95" y="1186"/>
      <point x="369" y="1520"/>
      <point x="775" y="1520" type="curve" smooth="yes"/>
      <point x="1181" y="1520"/>
      <point x="1455" y="1186"/>
      <point x="1455" y="750" type="curve" smooth="yes"/>
      <point x="1455" y="314"/>
      <point x="1201" y="-20"/>
    </contour>
    <contour>
      <point x="775" y="1484" type="curve" smooth="yes"/>
      <point x="517" y="1484"/>
      <point x="445" y="1164"/>
      <point x="445" y="750" type="curve" smooth="yes"/>
      <point x="445" y="336"/>
      <point x="497" y="16"/>
      <point x="775" y="16" type="curve" smooth="yes"/>
      <point x="1053" y="16"/>
      <point x="1105" y="336"/>
      <point x="1105" y="750" type="curve" smooth="yes"/>
      <point x="1105" y="1164"/>
      <point x="1033" y="1484"/>
    </contour>
  </outline>
</glyph>
<glyph name="P" format="2">
  <advance width="2813"/>
  <unicode hex="0050"/>
  <outline>
    <contour>
      <point x="463" y="3072" type="line"/>
      <point x="1098" y="3072" type="line"/>
      <point x="1098" y="0" type="line"/>
      <point x="463" y="0" type="line"/>
    </contour>
    <contour>
      <point x="94" y="82" type="line"/>
      <point x="1466" y="82" type="line"/>
      <point x="1466" y="0" type="line"/>
      <point x="94" y="0" type="line"/>
    </contour>
    <contour>
      <point x="1507" y="1339" type="curve" smooth="yes"/>
      <point x="914" y="1339" type="line"/>
      <point x="914" y="1420" type="line"/>
      <point x="1426" y="1420" type="line" smooth="yes"/>
      <point x="1778" y="1420"/>
      <point x="1938" y="1836"/>
      <point x="1938" y="2201" type="curve" smooth="yes"/>
      <point x="1938" y="2566"/>
      <point x="1778" y="2990"/>
      <point x="1426" y="2990" type="curve" smooth="yes"/>
      <point x="94" y="2990" type="line"/>
      <point x="94" y="3072" type="line"/>
      <point x="1507" y="3072" type="line" smooth="yes"/>
      <point x="2289" y="3072"/>
      <point x="2634" y="2733"/>
      <point x="2634" y="2201" type="curve" smooth="yes"/>
      <point x="2634" y="1669"/>
      <point x="2289" y="1339"/>
    </contour>
  </outline>
</glyph>
<glyph name="Q" format="2">
  <advance width="1549"/>
  <unicode hex="0051"/>
  <outline>
    <contour>
      <point x="775" y="-20" type="curve" smooth="yes"/>
      <point x="349" y="-20"/>
      <point x="95" y="314"/>
      <point x="95" y="750" type="curve" smooth="yes"/>
      <point x="95" y="1186"/>
      <point x="369" y="1520"/>
      <point x="775" y="1520" type="curve" smooth="yes"/>
      <point x="1181" y="1520"/>
      <point x="1455" y="1186"/>
      <point x="1455" y="750" type="curve" smooth="yes"/>
      <point x="1455" y="314"/>
      <point x="1201" y="-20"/>
    </contour>
    <contour>
      <point x="775" y="1484" type="curve" smooth="yes"/>
      <point x="517" y="1484"/>
      <point x="445" y="1164"/>
      <point x="445" y="750" type="curve" smooth="yes"/>
      <point x="445" y="336"/>
      <point x="497" y="16"/>
      <point x="775" y="16" type="curve" smooth="yes"/>
      <point x="1053" y="16"/>
      <point x="1105" y="336"/>
      <point x="1105" y="750" type="curve" smooth="yes"/>
      <point x="1105" y="1164"/>
      <point x="1033" y="1484"/>
    </contour>
    <contour>
      <point x="1175" y="-460" type="curve"/>
      <point x="1175" y="-500" type="line"/>
      <point x="679" y="-500"/>
      <point x="595" y="-387"/>
      <point x="595" y="9" type="curve"/>
      <point x="712" y="-6"/>
      <point x="828" y="-6"/>
      <point x="945" y="9" type="curve"/>
      <point x="945" y="-355"/>
      <point x="962" y="-460"/>
    </contour>
  </outline>
</glyph>
<glyph name="R" format="2">
  <advance width="1511"/>
  <unicode hex="0052"/>
  <outline>
    <contour>
      <point x="746" y="759" type="curve" smooth="yes"/>
      <point x="406" y="759" type="line"/>
      <point x="406" y="783" type="line"/>
      <point x="696" y="783" type="line" smooth="yes"/>
      <point x="888" y="783"/>
      <point x="986" y="886"/>
      <point x="986" y="1124" type="curve" smooth="yes"/>
      <point x="986" y="1362"/>
      <point x="888" y="1460"/>
      <point x="696" y="1460" type="curve" smooth="yes"/>
      <point x="46" y="1460" type="line"/>
      <point x="46" y="1500" type="line"/>
      <point x="746" y="1500" type="line" smooth="yes"/>
      <point x="1078" y="1500"/>
      <point x="1306" y="1384"/>
      <point x="1306" y="1124" type="curve" smooth="yes"/>
      <point x="1306" y="864"/>
      <point x="1098" y="759"/>
    </contour>
    <contour>
      <point x="46" y="40" type="line"/>
      <point x="756" y="40" type="line"/>
      <point x="756" y="0" type="line"/>
      <point x="46" y="0" type="line"/>
    </contour>
    <contour>
      <point x="246" y="1500" type="line"/>
      <point x="556" y="1500" type="line"/>
      <point x="556" y="0" type="line"/>
      <point x="246" y="0" type="line"/>
    </contour>
    <contour>
      <point x="1476" y="26" type="line"/>
      <point x="1444" y="8"/>
      <point x="1352" y="-15"/>
      <point x="1236" y="-15" type="curve" smooth="yes"/>
      <point x="690" y="-15"/>
      <point x="1188" y="744"/>
      <point x="696" y="744" type="curve" smooth="yes"/>
      <point x="406" y="744" type="line"/>
      <point x="406" y="765" type="line"/>
      <point x="856" y="765" type="line" smooth="yes"/>
      <point x="1502" y="765"/>
      <point x="1123" y="42"/>
      <point x="1363" y="42" type="curve" smooth="yes"/>
      <point x="1405" y="42"/>
      <point x="1435" y="49"/>
      <point x="1463" y="62" type="curve"/>
    </contour>
  </outline>
</glyph>
<glyph name="S" format="2">
  <advance width="1210"/>
  <unicode hex="0053"/>
  <outline>
    <contour>
      <point x="1063" y="1070" type="curve"/>
      <point x="1023" y="1070" type="line"/>
      <point x="943" y="1314"/>
      <point x="788" y="1472"/>
      <point x="589" y="1472" type="curve" smooth="yes"/>
      <point x="427" y="1472"/>
      <point x="336" y="1393"/>
      <point x="336" y="1260" type="curve" smooth="yes"/>
      <point x="336" y="920"/>
      <point x="1135" y="1005"/>
      <point x="1135" y="430" type="curve" smooth="yes"/>
      <point x="1135" y="150"/>
      <point x="917" y="-30"/>
      <point x="635" y="-30" type="curve" smooth="yes"/>
      <point x="327" y="-30"/>
      <point x="175" y="210"/>
      <point x="97" y="450" type="curve"/>
      <point x="136" y="450" type="line"/>
      <point x="207" y="242"/>
      <point x="354" y="16"/>
      <point x="616" y="16" type="curve" smooth="yes"/>
      <point x="808" y="16"/>
      <point x="929" y="117"/>
      <point x="929" y="285" type="curve" smooth="yes"/>
      <point x="929" y="665"/>
      <point x="125" y="540"/>
      <point x="125" y="1120" type="curve" smooth="yes"/>
      <point x="125" y="1370"/>
      <point x="333" y="1520"/>
      <point x="569" y="1520" type="curve" smooth="yes"/>
      <point x="815" y="1520"/>
      <point x="983" y="1348"/>
    </contour>
    <contour>
      <point x="1031" y="1520" type="line"/>
      <point x="1063" y="1520" type="line"/>
      <point x="1063" y="1070" type="line"/>
      <point x="1005" y="1179"/>
      <point x="951" y="1283"/>
      <point x="866" y="1401" type="curve"/>
    </contour>
    <contour>
      <point x="128" y="-20" type="line"/>
      <point x="97" y="-20" type="line"/>
      <point x="97" y="450" type="line"/>
      <point x="165" y="325"/>
      <point x="222" y="213"/>
      <point x="299" y="108" type="curve"/>
    </contour>
  </outline>
</glyph>
<glyph name="T" format="2">
  <advance width="1398"/>
  <unicode hex="0054"/>
  <outline>
    <contour>
      <point x="325" y="40" type="line"/>
      <point x="1075" y="40" type="line"/>
      <point x="1075" y="0" type="line"/>
      <point x="325" y="0" type="line"/>
    </contour>
    <contour>
      <point x="544" y="1485" type="line"/>
      <point x="854" y="1485" type="line"/>
      <point x="854" y="0" type="line"/>
      <point x="544" y="0" type="line"/>
    </contour>
    <contour>
      <point x="984" y="1460" type="curve" smooth="yes"/>
      <point x="415" y="1460" type="line" smooth="yes"/>
      <point x="201" y="1460"/>
      <point x="116" y="1274"/>
      <point x="86" y="1020" type="curve"/>
      <point x="46" y="1020" type="line"/>
      <point x="46" y="1500" type="line"/>
      <point x="1353" y="1500" type="line"/>
      <point x="1353" y="1020" type="line"/>
      <point x="1313" y="1020" type="line"/>
      <point x="1283" y="1274"/>
      <point x="1198" y="1460"/>
    </contour>
  </outline>
</glyph>
<glyph name="U" format="2">
  <advance width="1476"/>
  <unicode hex="0055"/>
  <outline>
    <contour>
      <point x="1027" y="1500" type="line"/>
      <point x="1427" y="1500" type="line"/>
      <point x="1427" y="1460" type="line"/>
      <point x="1027" y="1460" type="line"/>
    </contour>
    <contour>
      <point x="43" y="1500" type="line"/>
      <point x="733" y="1500" type="line"/>
      <point x="733" y="1460" type="line"/>
      <point x="43" y="1460" type="line"/>
    </contour>
    <contour>
      <point x="1203" y="1500" type="line"/>
      <point x="1243" y="1500" type="line"/>
      <point x="1243" y="460" type="line" smooth="yes"/>
      <point x="1243" y="130"/>
      <point x="1089" y="-30"/>
      <point x="763" y="-30" type="curve" smooth="yes"/>
      <point x="387" y="-30"/>
      <point x="223" y="114"/>
      <point x="223" y="460" type="curve" smooth="yes"/>
      <point x="223" y="1500" type="line"/>
      <point x="533" y="1500" type="line"/>
      <point x="533" y="480" type="line" smooth="yes"/>
      <point x="533" y="216"/>
      <point x="585" y="29"/>
      <point x="843" y="29" type="curve" smooth="yes"/>
      <point x="1051" y="29"/>
      <point x="1203" y="151"/>
      <point x="1203" y="460" type="curve" smooth="yes"/>
    </contour>
  </outline>
</glyph>
<glyph name="V" format="2">
  <advance width="3264"/>
  <unicode hex="0056"/>
  <outline>
    <contour>
      <point x="3181" y="2990" type="line"/>
      <point x="2256" y="2990" type="line"/>
      <point x="2256" y="3072" type="line"/>
      <point x="3181" y="3072" type="line"/>
    </contour>
    <contour>
      <point x="1558" y="2990" type="line"/>
      <point x="84" y="2990" type="line"/>
      <point x="84" y="3072" type="line"/>
      <point x="1558" y="3072" type="line"/>
    </contour>
    <contour>
      <point x="1903" y="620" type="line"/>
      <point x="2768" y="3072" type="line"/>
      <point x="2866" y="3072" type="line"/>
      <point x="1750" y="-61" type="line"/>
      <point x="1456" y="-61" type="line"/>
      <point x="371" y="3072" type="line"/>
      <point x="1108" y="3072" type="line"/>
    </contour>
  </outline>
</glyph>
<glyph name="W" format="2">
  <advance width="2234"/>
  <unicode hex="0057"/>
  <outline>
    <contour>
      <point x="1229" y="948" type="line"/>
      <point x="870" y="-20" type="line"/>
      <point x="743" y="-20" type="line"/>
      <point x="191" y="1500" type="line"/>
      <point x="544" y="1500" type="line"/>
      <point x="958" y="344" type="line"/>
      <point x="1197" y="990" type="line"/>
    </contour>
    <contour>
      <point x="1346" y="929" type="line"/>
      <point x="1312" y="962" type="line"/>
      <point x="1512" y="1500" type="line"/>
      <point x="1558" y="1498" type="line"/>
    </contour>
    <contour>
      <point x="2201" y="1460" type="line"/>
      <point x="1806" y="1460" type="line"/>
      <point x="1806" y="1500" type="line"/>
      <point x="2201" y="1500" type="line"/>
    </contour>
    <contour>
      <point x="1167" y="1500" type="line"/>
      <point x="1580" y="344" type="line"/>
      <point x="2006" y="1500" type="line"/>
      <point x="2051" y="1498" type="line"/>
      <point x="1494" y="-20" type="line"/>
      <point x="1397" y="-20" type="line"/>
      <point x="845" y="1500" type="line"/>
    </contour>
    <contour>
      <point x="1716" y="1460" type="line"/>
      <point x="33" y="1460" type="line"/>
      <point x="33" y="1500" type="line"/>
      <point x="1716" y="1500" type="line"/>
    </contour>
  </outline>
</glyph>
<glyph name="X" format="2">
  <advance width="1616"/>
  <unicode hex="0058"/>
  <outline>
    <contour>
      <point x="838" y="754" type="line"/>
      <point x="782" y="754" type="line"/>
      <point x="1267" y="1496" type="line"/>
      <point x="1314" y="1496" type="line"/>
    </contour>
    <contour>
      <point x="255" y="0" type="line"/>
      <point x="203" y="0" type="line"/>
      <point x="769" y="834" type="line"/>
      <point x="819" y="834" type="line"/>
    </contour>
    <contour>
      <point x="894" y="40" type="line"/>
      <point x="1580" y="40" type="line"/>
      <point x="1580" y="0" type="line"/>
      <point x="894" y="0" type="line"/>
    </contour>
    <contour>
      <point x="31" y="40" type="line"/>
      <point x="507" y="40" type="line"/>
      <point x="507" y="0" type="line"/>
      <point x="31" y="0" type="line"/>
    </contour>
    <contour>
      <point x="781" y="1460" type="line"/>
      <point x="101" y="1460" type="line"/>
      <point x="101" y="1500" type="line"/>
      <point x="781" y="1500" type="line"/>
    </contour>
    <contour>
      <point x="1470" y="1460" type="line"/>
      <point x="1033" y="1460" type="line"/>
      <point x="1033" y="1500" type="line"/>
      <point x="1470" y="1500" type="line"/>
    </contour>
    <contour>
      <point x="1451" y="0" type="line"/>
      <point x="1092" y="0" type="line"/>
      <point x="221" y="1500" type="line"/>
      <point x="573" y="1500" type="line"/>
    </contour>
  </outline>
</glyph>
<glyph name="Y" format="2">
  <advance width="3069"/>
  <unicode hex="0059"/>
  <outline>
    <contour>
      <point x="2992" y="2990" type="line"/>
      <point x="2145" y="2990" type="line"/>
      <point x="2145" y="3072" type="line"/>
      <point x="2992" y="3072" type="line"/>
    </contour>
    <contour>
      <point x="1498" y="2990" type="line"/>
      <point x="64" y="2990" type="line"/>
      <point x="64" y="3072" type="line"/>
      <point x="1498" y="3072" type="line"/>
    </contour>
    <contour>
      <point x="883" y="82" type="line"/>
      <point x="2296" y="82" type="line"/>
      <point x="2296" y="0" type="line"/>
      <point x="883" y="0" type="line"/>
    </contour>
    <contour>
      <point x="1850" y="1684" type="line"/>
      <point x="2632" y="3064" type="line"/>
      <point x="2730" y="3064" type="line"/>
      <point x="1886" y="1569" type="line"/>
      <point x="1886" y="0" type="line"/>
      <point x="1252" y="0" type="line"/>
      <point x="1252" y="1475" type="line"/>
      <point x="320" y="3072" type="line"/>
      <point x="1057" y="3072" type="line"/>
    </contour>
  </outline>
</glyph>
<glyph name="Z" format="2">
  <advance width="1251"/>
  <unicode hex="005A"/>
  <outline>
    <contour>
      <point x="77" y="1500" type="line"/>
      <point x="1153" y="1500" type="line"/>
      <point x="1153" y="1460" type="line"/>
      <point x="384" y="40" type="line"/>
      <point x="741" y="40" type="line" smooth="yes"/>
      <point x="1015" y="40"/>
      <point x="1090" y="156"/>
      <point x="1130" y="410" type="curve"/>
      <point x="1170" y="410" type="line"/>
      <point x="1170" y="0" type="line"/>
      <point x="33" y="0" type="line"/>
      <point x="33" y="40" type="line"/>
      <point x="804" y="1460" type="line"/>
      <point x="506" y="1460" type="line" smooth="yes"/>
      <point x="232" y="1460"/>
      <point x="157" y="1344"/>
      <point x="117" y="1130" type="curve"/>
      <point x="77" y="1130" type="line"/>
    </contour>
  </outline>
</glyph>
<glyph name="backslash" format="2">
  <advance width="1047"/>
  <unicode hex="005C"/>
  <outline>
    <contour>
      <point x="125" y="1560" type="line"/>
      <point x="969" y="-300" type="line"/>
      <point x="924" y="-300" type="line"/>
      <point x="80" y="1560" type="line"/>
    </contour>
  </outline>
</glyph>
<glyph name="grave" format="2">
  <advance width="819"/>
  <unicode hex="0060"/>
  <outline>
    <contour>
      <point x="240" y="1400" type="line" smooth="yes"/>
      <point x="172" y="1391"/>
      <point x="110" y="1442"/>
      <point x="110" y="1510" type="curve" smooth="yes"/>
      <point x="110" y="1578"/>
      <point x="182" y="1644"/>
      <point x="260" y="1616" type="curve" smooth="yes"/>
      <point x="707" y="1469" type="line"/>
      <point x="699" y="1432" type="line"/>
    </contour>
  </outline>
</glyph>
<glyph name="a" format="2">
  <advance width="1172"/>
  <unicode hex="0061"/>
  <outline>
    <contour>
      <point x="1156" y="105" type="line"/>
      <point x="1113" y="24"/>
      <point x="1015" y="-20"/>
      <point x="902" y="-20" type="curve" smooth="yes"/>
      <point x="778" y="-20"/>
      <point x="673" y="27"/>
      <point x="673" y="160" type="curve" smooth="yes"/>
      <point x="673" y="610" type="line" smooth="yes"/>
      <point x="673" y="766"/>
      <point x="632" y="893"/>
      <point x="482" y="893" type="curve" smooth="yes"/>
      <point x="413" y="893"/>
      <point x="356" y="874"/>
      <point x="322" y="851" type="curve"/>
      <point x="396" y="856"/>
      <point x="476" y="815"/>
      <point x="476" y="726" type="curve" smooth="yes"/>
      <point x="476" y="636"/>
      <point x="391" y="582"/>
      <point x="310" y="582" type="curve" smooth="yes"/>
      <point x="220" y="582"/>
      <point x="154" y="640"/>
      <point x="154" y="722" type="curve" smooth="yes"/>
      <point x="154" y="851"/>
      <point x="331" y="936"/>
      <point x="533" y="936" type="curve" smooth="yes"/>
      <point x="856" y="936"/>
      <point x="951" y="792"/>
      <point x="951" y="610" type="curve" smooth="yes"/>
      <point x="951" y="123" type="line" smooth="yes"/>
      <point x="951" y="81"/>
      <point x="972" y="53"/>
      <point x="1019" y="53" type="curve" smooth="yes"/>
      <point x="1051" y="53"/>
      <point x="1092" y="70"/>
      <point x="1126" y="125" type="curve"/>
    </contour>
    <contour>
      <point x="524" y="520" type="curve" smooth="yes"/>
      <point x="775" y="520" type="line"/>
      <point x="775" y="479" type="line"/>
      <point x="595" y="479" type="line" smooth="yes"/>
      <point x="467" y="479"/>
      <point x="385" y="378"/>
      <point x="385" y="253" type="curve" smooth="yes"/>
      <point x="385" y="158"/>
      <point x="419" y="88"/>
      <point x="493" y="88" type="curve" smooth="yes"/>
      <point x="566" y="88"/>
      <point x="673" y="152"/>
      <point x="673" y="364" type="curve"/>
      <point x="705" y="364" type="line"/>
      <point x="705" y="121"/>
      <point x="574" y="-20"/>
      <point x="357" y="-20" type="curve" smooth="yes"/>
      <point x="195" y="-20"/>
      <point x="84" y="77"/>
      <point x="84" y="226" type="curve" smooth="yes"/>
      <point x="84" y="396"/>
      <point x="235" y="520"/>
    </contour>
  </outline>
</glyph>
<glyph name="b" format="2">
  <advance width="1281"/>
  <unicode hex="0062"/>
  <outline>
    <contour>
      <point x="432" y="460" type="curve" smooth="yes"/>
      <point x="432" y="747"/>
      <point x="562" y="938"/>
      <point x="779" y="938" type="curve" smooth="yes"/>
      <point x="993" y="938"/>
      <point x="1200" y="760"/>
      <point x="1200" y="460" type="curve" smooth="yes"/>
      <point x="1200" y="160"/>
      <point x="993" y="-20"/>
      <point x="779" y="-20" type="curve" smooth="yes"/>
      <point x="562" y="-20"/>
      <point x="432" y="173"/>
    </contour>
    <contour>
      <point x="467" y="460" type="curve" smooth="yes"/>
      <point x="467" y="201"/>
      <point x="594" y="42"/>
      <point x="710" y="42" type="curve" smooth="yes"/>
      <point x="822" y="42"/>
      <point x="883" y="172"/>
      <point x="883" y="460" type="curve" smooth="yes"/>
      <point x="883" y="748"/>
      <point x="822" y="876"/>
      <point x="710" y="876" type="curve" smooth="yes"/>
      <point x="594" y="876"/>
      <point x="467" y="719"/>
    </contour>
    <contour>
      <point x="187" y="1460" type="line"/>
      <point x="51" y="1460" type="line"/>
      <point x="51" y="1500" type="line"/>
      <point x="467" y="1500" type="line"/>
      <point x="467" y="0" type="line"/>
      <point x="51" y="0" type="line"/>
      <point x="51" y="40" type="line"/>
      <point x="187" y="40" type="line"/>
    </contour>
  </outline>
</glyph>
<glyph name="c" format="2">
  <advance width="1059"/>
  <unicode hex="0063"/>
  <outline>
    <contour>
      <point x="853" y="811" type="curve"/>
      <point x="816" y="854"/>
      <point x="716" y="896"/>
      <point x="623" y="896" type="curve" smooth="yes"/>
      <point x="438" y="896"/>
      <point x="412" y="648"/>
      <point x="412" y="460" type="curve" smooth="yes"/>
      <point x="412" y="232"/>
      <point x="462" y="38"/>
      <point x="634" y="38" type="curve" smooth="yes"/>
      <point x="780" y="38"/>
      <point x="873" y="132"/>
      <point x="925" y="273" type="curve"/>
      <point x="968" y="273" type="line"/>
      <point x="916" y="106"/>
      <point x="800" y="-20"/>
      <point x="578" y="-20" type="curve" smooth="yes"/>
      <point x="286" y="-20"/>
      <point x="82" y="140"/>
      <point x="82" y="460" type="curve" smooth="yes"/>
      <point x="82" y="740"/>
      <point x="256" y="940"/>
      <point x="588" y="940" type="curve" smooth="yes"/>
      <point x="802" y="940"/>
      <point x="965" y="820"/>
      <point x="965" y="677" type="curve" smooth="yes"/>
      <point x="965" y="577"/>
      <point x="898" y="521"/>
      <point x="808" y="521" type="curve" smooth="yes"/>
      <point x="728" y="521"/>
      <point x="644" y="563"/>
      <point x="644" y="678" type="curve" smooth="yes"/>
      <point x="644" y="774"/>
      <point x="725" y="821"/>
      <point x="787" y="821" type="curve" smooth="yes"/>
      <point x="814" y="821"/>
      <point x="837" y="815"/>
    </contour>
  </outline>
</glyph>
<glyph name="d" format="2">
  <advance width="1281"/>
  <unicode hex="0064"/>
  <outline>
    <contour>
      <point x="850" y="459" type="curve" smooth="yes"/>
      <point x="850" y="172"/>
      <point x="720" y="-20"/>
      <point x="503" y="-20" type="curve" smooth="yes"/>
      <point x="289" y="-20"/>
      <point x="82" y="159"/>
      <point x="82" y="459" type="curve" smooth="yes"/>
      <point x="82" y="759"/>
      <point x="289" y="938"/>
      <point x="503" y="938" type="curve" smooth="yes"/>
      <point x="720" y="938"/>
      <point x="850" y="746"/>
    </contour>
    <contour>
      <point x="815" y="459" type="curve" smooth="yes"/>
      <point x="815" y="738"/>
      <point x="678" y="876"/>
      <point x="572" y="876" type="curve" smooth="yes"/>
      <point x="461" y="876"/>
      <point x="399" y="757"/>
      <point x="399" y="459" type="curve" smooth="yes"/>
      <point x="399" y="161"/>
      <point x="471" y="53"/>
      <point x="582" y="53" type="curve" smooth="yes"/>
      <point x="688" y="53"/>
      <point x="815" y="180"/>
    </contour>
    <contour>
      <point x="1230" y="40" type="line"/>
      <point x="1230" y="0" type="line"/>
      <point x="815" y="0" type="line"/>
      <point x="815" y="1460" type="line"/>
      <point x="680" y="1460" type="line"/>
      <point x="680" y="1500" type="line"/>
      <point x="1095" y="1500" type="line"/>
      <point x="1095" y="40" type="line"/>
    </contour>
  </outline>
</glyph>
<glyph name="e" format="2">
  <advance width="1071"/>
  <unicode hex="0065"/>
  <outline>
    <contour>
      <point x="216" y="515" type="line"/>
      <point x="216" y="555" type="line"/>
      <point x="690" y="555" type="line"/>
      <point x="689" y="709"/>
      <point x="681" y="900"/>
      <point x="558" y="900" type="curve" smooth="yes"/>
      <point x="423" y="900"/>
      <point x="390" y="708"/>
      <point x="390" y="480" type="curve" smooth="yes"/>
      <point x="390" y="222"/>
      <point x="431" y="31"/>
      <point x="614" y="31" type="curve" smooth="yes"/>
      <point x="781" y="31"/>
      <point x="903" y="131"/>
      <point x="953" y="273" type="curve"/>
      <point x="995" y="273" type="line"/>
      <point x="943" y="106"/>
      <point x="805" y="-20"/>
      <point x="566" y="-20" type="curve" smooth="yes"/>
      <point x="288" y="-20"/>
      <point x="82" y="150"/>
      <point x="82" y="460" type="curve" smooth="yes"/>
      <point x="82" y="770"/>
      <point x="279" y="940"/>
      <point x="558" y="940" type="curve" smooth="yes"/>
      <point x="852" y="940"/>
      <point x="987" y="733"/>
      <point x="987" y="515" type="curve"/>
    </contour>
  </outline>
</glyph>
<glyph name="f" format="2">
  <advance width="822"/>
  <unicode hex="0066"/>
  <outline>
    <contour>
      <point x="42" y="40" type="line"/>
      <point x="722" y="40" type="line"/>
      <point x="722" y="0" type="line"/>
      <point x="42" y="0" type="line"/>
    </contour>
    <contour>
      <point x="42" y="920" type="line"/>
      <point x="762" y="920" type="line"/>
      <point x="762" y="880" type="line"/>
      <point x="42" y="880" type="line"/>
    </contour>
    <contour>
      <point x="879" y="1412" type="curve"/>
      <point x="854" y="1440"/>
      <point x="797" y="1480"/>
      <point x="711" y="1480" type="curve" smooth="yes"/>
      <point x="551" y="1480"/>
      <point x="487" y="1334"/>
      <point x="487" y="1080" type="curve" smooth="yes"/>
      <point x="487" y="0" type="line"/>
      <point x="217" y="0" type="line"/>
      <point x="217" y="1024" type="line" smooth="yes"/>
      <point x="217" y="1306"/>
      <point x="411" y="1520"/>
      <point x="701" y="1520" type="curve" smooth="yes"/>
      <point x="873" y="1520"/>
      <point x="977" y="1406"/>
      <point x="977" y="1292" type="curve" smooth="yes"/>
      <point x="977" y="1190"/>
      <point x="913" y="1128"/>
      <point x="823" y="1128" type="curve" smooth="yes"/>
      <point x="743" y="1128"/>
      <point x="660" y="1178"/>
      <point x="660" y="1277" type="curve" smooth="yes"/>
      <point x="660" y="1371"/>
      <point x="729" y="1429"/>
      <point x="804" y="1429" type="curve" smooth="yes"/>
      <point x="842" y="1429"/>
      <point x="873" y="1418"/>
    </contour>
  </outline>
</glyph>
<glyph name="g" format="2">
  <advance width="1271"/>
  <unicode hex="0067"/>
  <outline>
    <contour>
      <point x="115" y="148" type="curve" smooth="yes"/>
      <point x="115" y="316"/>
      <point x="364" y="358"/>
      <point x="544" y="358" type="curve"/>
      <point x="542" y="335" type="line"/>
      <point x="456" y="335"/>
      <point x="293" y="300"/>
      <point x="293" y="232" type="curve" smooth="yes"/>
      <point x="293" y="174"/>
      <point x="385" y="168"/>
      <point x="495" y="168" type="curve" smooth="yes"/>
      <point x="565" y="168"/>
      <point x="627" y="170"/>
      <point x="683" y="170" type="curve" smooth="yes"/>
      <point x="833" y="170"/>
      <point x="1026" y="108"/>
      <point x="1026" y="-164" type="curve" smooth="yes"/>
      <point x="1026" y="-413"/>
      <point x="811" y="-520"/>
      <point x="538" y="-520" type="curve" smooth="yes"/>
      <point x="296" y="-520"/>
      <point x="52" y="-450"/>
      <point x="52" y="-260" type="curve" smooth="yes"/>
      <point x="52" y="-78"/>
      <point x="266" y="-36"/>
      <point x="356" y="-36" type="curve" smooth="yes"/>
      <point x="380" y="-36" type="line"/>
      <point x="310" y="-70"/>
      <point x="287" y="-156"/>
      <point x="287" y="-210" type="curve" smooth="yes"/>
      <point x="287" y="-363"/>
      <point x="393" y="-474"/>
      <point x="568" y="-474" type="curve" smooth="yes"/>
      <point x="735" y="-474"/>
      <point x="912" y="-420"/>
      <point x="912" y="-249" type="curve" smooth="yes"/>
      <point x="912" y="-131"/>
      <point x="817" y="-68"/>
      <point x="687" y="-68" type="curve" smooth="yes"/>
      <point x="635" y="-68"/>
      <point x="508" y="-68"/>
      <point x="464" y="-68" type="curve" smooth="yes"/>
      <point x="284" y="-68"/>
      <point x="115" y="-6"/>
    </contour>
    <contour>
      <point x="390" y="630" type="curve" smooth="yes"/>
      <point x="390" y="462"/>
      <point x="402" y="363"/>
      <point x="510" y="363" type="curve" smooth="yes"/>
      <point x="588" y="363"/>
      <point x="630" y="462"/>
      <point x="630" y="630" type="curve" smooth="yes"/>
      <point x="630" y="798"/>
      <point x="588" y="900"/>
      <point x="510" y="900" type="curve" smooth="yes"/>
      <point x="432" y="900"/>
      <point x="390" y="798"/>
    </contour>
    <contour>
      <point x="102" y="630" type="curve" smooth="yes"/>
      <point x="102" y="850"/>
      <point x="318" y="940"/>
      <point x="510" y="940" type="curve" smooth="yes"/>
      <point x="702" y="940"/>
      <point x="915" y="850"/>
      <point x="915" y="630" type="curve" smooth="yes"/>
      <point x="915" y="410"/>
      <point x="702" y="323"/>
      <point x="510" y="323" type="curve" smooth="yes"/>
      <point x="318" y="323"/>
      <point x="102" y="410"/>
    </contour>
    <contour>
      <point x="1161" y="839" type="curve"/>
      <point x="1134" y="874"/>
      <point x="1085" y="891"/>
      <point x="1034" y="891" type="curve" smooth="yes"/>
      <point x="947" y="891"/>
      <point x="839" y="846"/>
      <point x="799" y="676" type="curve"/>
      <point x="766" y="698" type="line"/>
      <point x="806" y="876"/>
      <point x="934" y="930"/>
      <point x="1034" y="930" type="curve" smooth="yes"/>
      <point x="1165" y="930"/>
      <point x="1232" y="837"/>
      <point x="1232" y="761" type="curve" smooth="yes"/>
      <point x="1232" y="653"/>
      <point x="1164" y="618"/>
      <point x="1104" y="618" type="curve" smooth="yes"/>
      <point x="1044" y="618"/>
      <point x="979" y="657"/>
      <point x="979" y="743" type="curve" smooth="yes"/>
      <point x="979" y="806"/>
      <point x="1026" y="857"/>
      <point x="1090" y="857" type="curve" smooth="yes"/>
      <point x="1121" y="857"/>
      <point x="1150" y="849"/>
    </contour>
  </outline>
</glyph>
<glyph name="h" format="2">
  <advance width="1260"/>
  <unicode hex="0068"/>
  <outline>
    <contour>
      <point x="796" y="612" type="line" smooth="yes"/>
      <point x="796" y="780"/>
      <point x="775" y="851"/>
      <point x="692" y="851" type="curve" smooth="yes"/>
      <point x="572" y="851"/>
      <point x="467" y="632"/>
      <point x="467" y="447" type="curve"/>
      <point x="437" y="447" type="line"/>
      <point x="437" y="637"/>
      <point x="518" y="940"/>
      <point x="793" y="940" type="curve" smooth="yes"/>
      <point x="1015" y="940"/>
      <point x="1074" y="812"/>
      <point x="1074" y="638" type="curve" smooth="yes"/>
      <point x="1074" y="0" type="line"/>
      <point x="796" y="0" type="line"/>
    </contour>
    <contour>
      <point x="692" y="40" type="line"/>
      <point x="1209" y="40" type="line"/>
      <point x="1209" y="0" type="line"/>
      <point x="692" y="0" type="line"/>
    </contour>
    <contour>
      <point x="52" y="40" type="line"/>
      <point x="572" y="40" type="line"/>
      <point x="572" y="0" type="line"/>
      <point x="52" y="0" type="line"/>
    </contour>
    <contour>
      <point x="187" y="1460" type="line"/>
      <point x="52" y="1460" type="line"/>
      <point x="52" y="1500" type="line"/>
      <point x="467" y="1500" type="line"/>
      <point x="467" y="0" type="line"/>
      <point x="187" y="0" type="line"/>
    </contour>
  </outline>
</glyph>
<glyph name="i" format="2">
  <advance width="659"/>
  <unicode hex="0069"/>
  <outline>
    <contour>
      <point x="62" y="40" type="line"/>
      <point x="612" y="40" type="line"/>
      <point x="612" y="0" type="line"/>
      <point x="62" y="0" type="line"/>
    </contour>
    <contour>
      <point x="146" y="1350" type="curve" smooth="yes"/>
      <point x="146" y="1446"/>
      <point x="221" y="1520"/>
      <point x="317" y="1520" type="curve" smooth="yes"/>
      <point x="413" y="1520"/>
      <point x="487" y="1446"/>
      <point x="487" y="1350" type="curve" smooth="yes"/>
      <point x="487" y="1254"/>
      <point x="413" y="1180"/>
      <point x="317" y="1180" type="curve" smooth="yes"/>
      <point x="221" y="1180"/>
      <point x="146" y="1254"/>
    </contour>
    <contour>
      <point x="197" y="880" type="line"/>
      <point x="62" y="880" type="line"/>
      <point x="62" y="920" type="line"/>
      <point x="477" y="920" type="line"/>
      <point x="477" y="0" type="line"/>
      <point x="197" y="0" type="line"/>
    </contour>
  </outline>
</glyph>
<glyph name="j" format="2">
  <advance width="671"/>
  <unicode hex="006A"/>
  <outline>
    <contour>
      <point x="181" y="1350" type="curve" smooth="yes"/>
      <point x="181" y="1446"/>
      <point x="255" y="1520"/>
      <point x="351" y="1520" type="curve" smooth="yes"/>
      <point x="447" y="1520"/>
      <point x="521" y="1446"/>
      <point x="521" y="1350" type="curve" smooth="yes"/>
      <point x="521" y="1254"/>
      <point x="447" y="1180"/>
      <point x="351" y="1180" type="curve" smooth="yes"/>
      <point x="255" y="1180"/>
      <point x="181" y="1254"/>
    </contour>
    <contour>
      <point x="507" y="920" type="line"/>
      <point x="507" y="-24" type="line" smooth="yes"/>
      <point x="507" y="-286"/>
      <point x="353" y="-520"/>
      <point x="73" y="-520" type="curve" smooth="yes"/>
      <point x="-109" y="-520"/>
      <point x="-233" y="-419"/>
      <point x="-233" y="-287" type="curve" smooth="yes"/>
      <point x="-233" y="-186"/>
      <point x="-156" y="-118"/>
      <point x="-69" y="-118" type="curve" smooth="yes"/>
      <point x="11" y="-118"/>
      <point x="93" y="-166"/>
      <point x="93" y="-266" type="curve" smooth="yes"/>
      <point x="93" y="-353"/>
      <point x="29" y="-417"/>
      <point x="-74" y="-417" type="curve" smooth="yes"/>
      <point x="-94" y="-417"/>
      <point x="-119" y="-415"/>
      <point x="-126" y="-410" type="curve"/>
      <point x="-103" y="-437"/>
      <point x="-39" y="-477"/>
      <point x="53" y="-477" type="curve" smooth="yes"/>
      <point x="263" y="-477"/>
      <point x="227" y="-214"/>
      <point x="227" y="40" type="curve" smooth="yes"/>
      <point x="227" y="880" type="line"/>
      <point x="52" y="880" type="line"/>
      <point x="52" y="920" type="line"/>
    </contour>
  </outline>
</glyph>
<glyph name="k" format="2">
  <advance width="1299"/>
  <unicode hex="006B"/>
  <outline>
    <contour>
      <point x="1193" y="0" type="line"/>
      <point x="851" y="0" type="line"/>
      <point x="453" y="534" type="line"/>
      <point x="995" y="920" type="line"/>
      <point x="1055" y="920" type="line"/>
      <point x="696" y="653" type="line"/>
    </contour>
    <contour>
      <point x="710" y="40" type="line"/>
      <point x="1269" y="40" type="line"/>
      <point x="1269" y="0" type="line"/>
      <point x="710" y="0" type="line"/>
    </contour>
    <contour>
      <point x="1171" y="880" type="line"/>
      <point x="734" y="880" type="line"/>
      <point x="734" y="920" type="line"/>
      <point x="1171" y="920" type="line"/>
    </contour>
    <contour>
      <point x="52" y="40" type="line"/>
      <point x="616" y="40" type="line"/>
      <point x="616" y="0" type="line"/>
      <point x="52" y="0" type="line"/>
    </contour>
    <contour>
      <point x="227" y="1460" type="line"/>
      <point x="52" y="1460" type="line"/>
      <point x="52" y="1500" type="line"/>
      <point x="507" y="1500" type="line"/>
      <point x="507" y="0" type="line"/>
      <point x="227" y="0" type="line"/>
    </contour>
  </outline>
</glyph>
<glyph name="l" format="2">
  <advance width="732"/>
  <unicode hex="006C"/>
  <outline>
    <contour>
      <point x="52" y="40" type="line"/>
      <point x="682" y="40" type="line"/>
      <point x="682" y="0" type="line"/>
      <point x="52" y="0" type="line"/>
    </contour>
    <contour>
      <point x="227" y="1460" type="line"/>
      <point x="52" y="1460" type="line"/>
      <point x="52" y="1500" type="line"/>
      <point x="507" y="1500" type="line"/>
      <point x="507" y="0" type="line"/>
      <point x="227" y="0" type="line"/>
    </contour>
  </outline>
</glyph>
<glyph name="m" format="2">
  <advance width="1790"/>
  <unicode hex="006D"/>
  <outline>
    <contour>
      <point x="1034" y="638" type="curve" smooth="yes"/>
      <point x="1034" y="0" type="line"/>
      <point x="757" y="0" type="line"/>
      <point x="757" y="616" type="line" smooth="yes"/>
      <point x="757" y="784"/>
      <point x="751" y="860"/>
      <point x="679" y="860" type="curve" smooth="yes"/>
      <point x="561" y="860"/>
      <point x="464" y="634"/>
      <point x="464" y="451" type="curve"/>
      <point x="435" y="451" type="line"/>
      <point x="435" y="641"/>
      <point x="503" y="940"/>
      <point x="776" y="940" type="curve" smooth="yes"/>
      <point x="972" y="940"/>
      <point x="1034" y="812"/>
    </contour>
    <contour>
      <point x="52" y="40" type="line"/>
      <point x="564" y="40" type="line"/>
      <point x="564" y="0" type="line"/>
      <point x="52" y="0" type="line"/>
    </contour>
    <contour>
      <point x="657" y="40" type="line"/>
      <point x="1135" y="40" type="line"/>
      <point x="1135" y="0" type="line"/>
      <point x="657" y="0" type="line"/>
    </contour>
    <contour>
      <point x="1227" y="40" type="line"/>
      <point x="1739" y="40" type="line"/>
      <point x="1739" y="0" type="line"/>
      <point x="1227" y="0" type="line"/>
    </contour>
    <contour>
      <point x="187" y="880" type="line"/>
      <point x="52" y="880" type="line"/>
      <point x="52" y="920" type="line"/>
      <point x="464" y="920" type="line"/>
      <point x="464" y="0" type="line"/>
      <point x="187" y="0" type="line"/>
    </contour>
    <contour>
      <point x="1604" y="638" type="curve" smooth="yes"/>
      <point x="1604" y="0" type="line"/>
      <point x="1327" y="0" type="line"/>
      <point x="1327" y="616" type="line" smooth="yes"/>
      <point x="1327" y="784"/>
      <point x="1316" y="860"/>
      <point x="1243" y="860" type="curve" smooth="yes"/>
      <point x="1122" y="860"/>
      <point x="1034" y="634"/>
      <point x="1034" y="451" type="curve"/>
      <point x="1005" y="451" type="line"/>
      <point x="1005" y="641"/>
      <point x="1059" y="940"/>
      <point x="1341" y="940" type="curve" smooth="yes"/>
      <point x="1537" y="940"/>
      <point x="1604" y="812"/>
    </contour>
  </outline>
</glyph>
<glyph name="o" format="2">
  <advance width="1138"/>
  <unicode hex="006F"/>
  <outline>
    <contour>
      <point x="379" y="460" type="curve" smooth="yes"/>
      <point x="379" y="222"/>
      <point x="424" y="20"/>
      <point x="570" y="20" type="curve" smooth="yes"/>
      <point x="716" y="20"/>
      <point x="760" y="222"/>
      <point x="760" y="460" type="curve" smooth="yes"/>
      <point x="760" y="698"/>
      <point x="716" y="900"/>
      <point x="570" y="900" type="curve" smooth="yes"/>
      <point x="424" y="900"/>
      <point x="379" y="698"/>
    </contour>
    <contour>
      <point x="82" y="460" type="curve" smooth="yes"/>
      <point x="82" y="720"/>
      <point x="268" y="940"/>
      <point x="570" y="940" type="curve" smooth="yes"/>
      <point x="872" y="940"/>
      <point x="1058" y="720"/>
      <point x="1058" y="460" type="curve" smooth="yes"/>
      <point x="1058" y="200"/>
      <point x="872" y="-20"/>
      <point x="570" y="-20" type="curve" smooth="yes"/>
      <point x="268" y="-20"/>
      <point x="82" y="200"/>
    </contour>
  </outline>
</glyph>
<glyph name="p" format="2">
  <advance width="1281"/>
  <unicode hex="0070"/>
  <outline>
    <contour>
      <point x="432" y="460" type="curve" smooth="yes"/>
      <point x="432" y="747"/>
      <point x="562" y="938"/>
      <point x="779" y="938" type="curve" smooth="yes"/>
      <point x="993" y="938"/>
      <point x="1200" y="760"/>
      <point x="1200" y="460" type="curve" smooth="yes"/>
      <point x="1200" y="160"/>
      <point x="993" y="-20"/>
      <point x="779" y="-20" type="curve" smooth="yes"/>
      <point x="562" y="-20"/>
      <point x="432" y="173"/>
    </contour>
    <contour>
      <point x="467" y="460" type="curve" smooth="yes"/>
      <point x="467" y="181"/>
      <point x="607" y="42"/>
      <point x="705" y="42" type="curve" smooth="yes"/>
      <point x="827" y="42"/>
      <point x="883" y="192"/>
      <point x="883" y="460" type="curve" smooth="yes"/>
      <point x="883" y="728"/>
      <point x="832" y="876"/>
      <point x="710" y="876" type="curve" smooth="yes"/>
      <point x="605" y="876"/>
      <point x="467" y="739"/>
    </contour>
    <contour>
      <point x="52" y="-460" type="line"/>
      <point x="602" y="-460" type="line"/>
      <point x="602" y="-500" type="line"/>
      <point x="52" y="-500" type="line"/>
    </contour>
    <contour>
      <point x="187" y="880" type="line"/>
      <point x="52" y="880" type="line"/>
      <point x="52" y="920" type="line"/>
      <point x="467" y="920" type="line"/>
      <point x="467" y="-500" type="line"/>
      <point x="187" y="-500" type="line"/>
    </contour>
  </outline>
</glyph>
<glyph name="q" format="2">
  <advance width="1281"/>
  <unicode hex="0071"/>
  <outline>
    <contour>
      <point x="850" y="459" type="curve" smooth="yes"/>
      <point x="850" y="172"/>
      <point x="720" y="-20"/>
      <point x="503" y="-20" type="curve" smooth="yes"/>
      <point x="289" y="-20"/>
      <point x="82" y="159"/>
      <point x="82" y="459" type="curve" smooth="yes"/>
      <point x="82" y="759"/>
      <point x="289" y="938"/>
      <point x="503" y="938" type="curve" smooth="yes"/>
      <point x="720" y="938"/>
      <point x="850" y="746"/>
    </contour>
    <contour>
      <point x="815" y="459" type="curve" smooth="yes"/>
      <point x="815" y="738"/>
      <point x="677" y="876"/>
      <point x="572" y="876" type="curve" smooth="yes"/>
      <point x="461" y="876"/>
      <point x="399" y="727"/>
      <point x="399" y="459" type="curve" smooth="yes"/>
      <point x="399" y="191"/>
      <point x="461" y="53"/>
      <point x="572" y="53" type="curve" smooth="yes"/>
      <point x="697" y="53"/>
      <point x="815" y="180"/>
    </contour>
    <contour>
      <point x="1230" y="-460" type="line"/>
      <point x="1230" y="-500" type="line"/>
      <point x="680" y="-500" type="line"/>
      <point x="680" y="-460" type="line"/>
    </contour>
    <contour>
      <point x="1230" y="920" type="line"/>
      <point x="1230" y="880" type="line"/>
      <point x="1095" y="880" type="line"/>
      <point x="1095" y="-500" type="line"/>
      <point x="815" y="-500" type="line"/>
      <point x="815" y="920" type="line"/>
    </contour>
  </outline>
</glyph>
<glyph name="r" format="2">
  <advance width="988"/>
  <unicode hex="0072"/>
  <outline>
    <contour>
      <point x="816" y="877" type="curve"/>
      <point x="799" y="888"/>
      <point x="763" y="897"/>
      <point x="728" y="897" type="curve" smooth="yes"/>
      <point x="549" y="897"/>
      <point x="464" y="641"/>
      <point x="464" y="438" type="curve"/>
      <point x="433" y="438" type="line"/>
      <point x="433" y="676"/>
      <point x="502" y="940"/>
      <point x="738" y="940" type="curve" smooth="yes"/>
      <point x="855" y="940"/>
      <point x="957" y="855"/>
      <point x="957" y="734" type="curve" smooth="yes"/>
      <point x="957" y="641"/>
      <point x="896" y="562"/>
      <point x="792" y="562" type="curve" smooth="yes"/>
      <point x="696" y="562"/>
      <point x="625" y="624"/>
      <point x="625" y="720" type="curve" smooth="yes"/>
      <point x="625" y="813"/>
      <point x="703" y="882"/>
    </contour>
    <contour>
      <point x="52" y="40" type="line"/>
      <point x="605" y="40" type="line"/>
      <point x="605" y="0" type="line"/>
      <point x="52" y="0" type="line"/>
    </contour>
    <contour>
      <point x="187" y="880" type="line"/>
      <point x="52" y="880" type="line"/>
      <point x="52" y="920" type="line"/>
      <point x="464" y="920" type="line"/>
      <point x="464" y="0" type="line"/>
      <point x="187" y="0" type="line"/>
    </contour>
  </outline>
</glyph>
<glyph name="s" format="2">
  <advance width="909"/>
  <unicode hex="0073"/>
  <outline>
    <contour>
      <point x="727" y="728" type="curve"/>
      <point x="698" y="770"/>
      <point x="664" y="808"/>
      <point x="628" y="847" type="curve"/>
      <point x="744" y="940" type="line"/>
      <point x="776" y="940" type="line"/>
      <point x="776" y="660" type="line"/>
      <point x="738" y="660" type="line"/>
      <point x="738" y="682"/>
      <point x="735" y="703"/>
    </contour>
    <contour>
      <point x="769" y="660" type="curve"/>
      <point x="737" y="660" type="line"/>
      <point x="692" y="772"/>
      <point x="580" y="896"/>
      <point x="416" y="896" type="curve" smooth="yes"/>
      <point x="340" y="896"/>
      <point x="246" y="861"/>
      <point x="246" y="771" type="curve" smooth="yes"/>
      <point x="246" y="591"/>
      <point x="834" y="656"/>
      <point x="834" y="291" type="curve" smooth="yes"/>
      <point x="834" y="83"/>
      <point x="659" y="-20"/>
      <point x="479" y="-20" type="curve" smooth="yes"/>
      <point x="285" y="-20"/>
      <point x="139" y="110"/>
      <point x="89" y="296" type="curve"/>
      <point x="121" y="296" type="line"/>
      <point x="183" y="134"/>
      <point x="315" y="23"/>
      <point x="460" y="23" type="curve" smooth="yes"/>
      <point x="566" y="23"/>
      <point x="678" y="60"/>
      <point x="678" y="160" type="curve" smooth="yes"/>
      <point x="678" y="352"/>
      <point x="108" y="272"/>
      <point x="108" y="653" type="curve" smooth="yes"/>
      <point x="108" y="811"/>
      <point x="224" y="938"/>
      <point x="414" y="938" type="curve" smooth="yes"/>
      <point x="606" y="938"/>
      <point x="729" y="792"/>
    </contour>
    <contour>
      <point x="114" y="-20" type="line"/>
      <point x="82" y="-20" type="line"/>
      <point x="82" y="296" type="line"/>
      <point x="121" y="296" type="line"/>
      <point x="119" y="266"/>
      <point x="121" y="237"/>
      <point x="130" y="212" type="curve"/>
      <point x="169" y="156"/>
      <point x="196" y="122"/>
      <point x="230" y="84" type="curve"/>
    </contour>
  </outline>
</glyph>
<glyph name="t" format="2">
  <advance width="740"/>
  <unicode hex="0074"/>
  <outline>
    <contour>
      <point x="31" y="920" type="line"/>
      <point x="665" y="920" type="line"/>
      <point x="665" y="880" type="line"/>
      <point x="31" y="880" type="line"/>
    </contour>
    <contour>
      <point x="724" y="186" type="line"/>
      <point x="674" y="68"/>
      <point x="574" y="-14"/>
      <point x="409" y="-14" type="curve" smooth="yes"/>
      <point x="215" y="-14"/>
      <point x="171" y="92"/>
      <point x="171" y="232" type="curve" smooth="yes"/>
      <point x="171" y="1120" type="line"/>
      <point x="261" y="1120"/>
      <point x="381" y="1140"/>
      <point x="451" y="1180" type="curve"/>
      <point x="451" y="201" type="line" smooth="yes"/>
      <point x="451" y="101"/>
      <point x="472" y="65"/>
      <point x="528" y="65" type="curve" smooth="yes"/>
      <point x="588" y="65"/>
      <point x="653" y="124"/>
      <point x="689" y="203" type="curve"/>
    </contour>
  </outline>
</glyph>
<glyph name="u" format="2">
  <advance width="2587"/>
  <unicode hex="0075"/>
  <outline>
    <contour>
      <point x="956" y="1884" type="line"/>
      <point x="956" y="630" type="line" smooth="yes"/>
      <point x="956" y="286"/>
      <point x="995" y="142"/>
      <point x="1165" y="142" type="curve" smooth="yes"/>
      <point x="1411" y="142"/>
      <point x="1631" y="590"/>
      <point x="1631" y="968" type="curve"/>
      <point x="1690" y="968" type="line"/>
      <point x="1690" y="578"/>
      <point x="1524" y="-41"/>
      <point x="960" y="-41" type="curve" smooth="yes"/>
      <point x="506" y="-41"/>
      <point x="382" y="222"/>
      <point x="382" y="578" type="curve" smooth="yes"/>
      <point x="382" y="1802" type="line"/>
      <point x="106" y="1802" type="line"/>
      <point x="106" y="1884" type="line"/>
    </contour>
    <contour>
      <point x="2206" y="82" type="line"/>
      <point x="2482" y="82" type="line"/>
      <point x="2482" y="0" type="line"/>
      <point x="1631" y="0" type="line"/>
      <point x="1631" y="1802" type="line"/>
      <point x="1366" y="1802" type="line"/>
      <point x="1366" y="1884" type="line"/>
      <point x="2206" y="1884" type="line"/>
    </contour>
  </outline>
</glyph>
<glyph name="v" format="2">
  <advance width="2337"/>
  <unicode hex="0076"/>
  <outline>
    <contour>
      <point x="2304" y="1803" type="line"/>
      <point x="1555" y="1803" type="line"/>
      <point x="1555" y="1884" type="line"/>
      <point x="2304" y="1884" type="line"/>
    </contour>
    <contour>
      <point x="1212" y="1803" type="line"/>
      <point x="24" y="1803" type="line"/>
      <point x="24" y="1884" type="line"/>
      <point x="1212" y="1884" type="line"/>
    </contour>
    <contour>
      <point x="1396" y="490" type="line"/>
      <point x="1955" y="1884" type="line"/>
      <point x="2058" y="1884" type="line"/>
      <point x="1282" y="-41" type="line"/>
      <point x="1045" y="-41" type="line"/>
      <point x="255" y="1884" type="line"/>
      <point x="889" y="1884" type="line"/>
    </contour>
  </outline>
</glyph>
<glyph name="w" format="2">
  <advance width="1645"/>
  <unicode hex="0077"/>
  <outline>
    <contour>
      <point x="590" y="880" type="line"/>
      <point x="12" y="880" type="line"/>
      <point x="12" y="920" type="line"/>
      <point x="590" y="920" type="line"/>
    </contour>
    <contour>
      <point x="1630" y="880" type="line"/>
      <point x="1234" y="880" type="line"/>
      <point x="1234" y="920" type="line"/>
      <point x="1630" y="920" type="line"/>
    </contour>
    <contour>
      <point x="606" y="258" type="line"/>
      <point x="880" y="940" type="line"/>
      <point x="1038" y="940" type="line"/>
      <point x="1232" y="300" type="line"/>
      <point x="1439" y="920" type="line"/>
      <point x="1487" y="920" type="line"/>
      <point x="1173" y="-20" type="line"/>
      <point x="1058" y="-20" type="line"/>
      <point x="821" y="672" type="line"/>
      <point x="542" y="-20" type="line"/>
      <point x="426" y="-20" type="line"/>
      <point x="127" y="920" type="line"/>
      <point x="417" y="920" type="line"/>
    </contour>
  </outline>
</glyph>
<glyph name="x" format="2">
  <advance width="2399"/>
  <unicode hex="0078"/>
  <outline>
    <contour>
      <point x="1194" y="81" type="line"/>
      <point x="2334" y="81" type="line"/>
      <point x="2334" y="0" type="line"/>
      <point x="1194" y="0" type="line"/>
    </contour>
    <contour>
      <point x="64" y="81" type="line"/>
      <point x="830" y="81" type="line"/>
      <point x="830" y="0" type="line"/>
      <point x="64" y="0" type="line"/>
    </contour>
    <contour>
      <point x="1258" y="1803" type="line"/>
      <point x="85" y="1803" type="line"/>
      <point x="85" y="1884" type="line"/>
      <point x="1258" y="1884" type="line"/>
    </contour>
    <contour>
      <point x="2283" y="1803" type="line"/>
      <point x="1560" y="1803" type="line"/>
      <point x="1560" y="1884" type="line"/>
      <point x="2283" y="1884" type="line"/>
    </contour>
    <contour>
      <point x="2160" y="0" type="line"/>
      <point x="1490" y="0" type="line"/>
      <point x="300" y="1884" type="line"/>
      <point x="950" y="1884" type="line"/>
    </contour>
    <contour>
      <point x="374" y="0" type="line"/>
      <point x="266" y="0" type="line"/>
      <point x="1933" y="1884" type="line"/>
      <point x="2040" y="1884" type="line"/>
    </contour>
  </outline>
</glyph>
<glyph name="y" format="2">
  <advance width="1184"/>
  <unicode hex="0079"/>
  <outline>
    <contour>
      <point x="646" y="880" type="line"/>
      <point x="2" y="880" type="line"/>
      <point x="2" y="920" type="line"/>
      <point x="646" y="920" type="line"/>
    </contour>
    <contour>
      <point x="1193" y="880" type="line"/>
      <point x="840" y="880" type="line"/>
      <point x="840" y="920" type="line"/>
      <point x="1193" y="920" type="line"/>
    </contour>
    <contour>
      <point x="772" y="270" type="line"/>
      <point x="606" y="-46" type="line"/>
      <point x="112" y="920" type="line"/>
      <point x="442" y="920" type="line"/>
    </contour>
    <contour>
      <point x="451" y="-332" type="curve"/>
      <point x="1041" y="920" type="line"/>
      <point x="1092" y="920" type="line"/>
      <point x="479" y="-376" type="line" smooth="yes"/>
      <point x="437" y="-464"/>
      <point x="383" y="-515"/>
      <point x="297" y="-515" type="curve" smooth="yes"/>
      <point x="217" y="-515"/>
      <point x="137" y="-462"/>
      <point x="137" y="-366" type="curve" smooth="yes"/>
      <point x="137" y="-280"/>
      <point x="203" y="-208"/>
      <point x="297" y="-208" type="curve" smooth="yes"/>
      <point x="377" y="-208"/>
      <point x="435" y="-270"/>
    </contour>
  </outline>
</glyph>
<glyph name="z" format="2">
  <advance width="976"/>
  <unicode hex="007A"/>
  <outline>
    <contour>
      <point x="432" y="880" type="line" smooth="yes"/>
      <point x="244" y="880"/>
      <point x="168" y="778"/>
      <point x="138" y="576" type="curve"/>
      <point x="98" y="576" type="line"/>
      <point x="98" y="920" type="line"/>
      <point x="894" y="920" type="line"/>
      <point x="894" y="880" type="line"/>
      <point x="354" y="40" type="line"/>
      <point x="545" y="40" type="line" smooth="yes"/>
      <point x="779" y="40"/>
      <point x="856" y="120"/>
      <point x="886" y="368" type="curve"/>
      <point x="926" y="368" type="line"/>
      <point x="926" y="0" type="line"/>
      <point x="42" y="0" type="line"/>
      <point x="42" y="40" type="line"/>
      <point x="579" y="880" type="line"/>
    </contour>
  </outline>
</glyph>
<glyph name="braceleft" format="2">
  <advance width="663"/>
  <unicode hex="007B"/>
  <outline>
    <contour>
      <point x="604" y="1560" type="curve"/>
      <point x="604" y="1521" type="line"/>
      <point x="480" y="1521"/>
      <point x="416" y="1420"/>
      <point x="416" y="1294" type="curve" smooth="yes"/>
      <point x="416" y="1162"/>
      <point x="484" y="1072"/>
      <point x="484" y="892" type="curve" smooth="yes"/>
      <point x="484" y="726"/>
      <point x="378" y="665"/>
      <point x="110" y="625" type="curve"/>
      <point x="110" y="650" type="line"/>
      <point x="170" y="670"/>
      <point x="230" y="710"/>
      <point x="230" y="792" type="curve" smooth="yes"/>
      <point x="230" y="918"/>
      <point x="110" y="1008"/>
      <point x="110" y="1262" type="curve" smooth="yes"/>
      <point x="110" y="1460"/>
      <point x="224" y="1560"/>
    </contour>
    <contour>
      <point x="604" y="-300" type="line"/>
      <point x="224" y="-300"/>
      <point x="110" y="-198"/>
      <point x="110" y="0" type="curve" smooth="yes"/>
      <point x="110" y="254"/>
      <point x="230" y="344"/>
      <point x="230" y="470" type="curve" smooth="yes"/>
      <point x="230" y="552"/>
      <point x="170" y="590"/>
      <point x="110" y="610" type="curve"/>
      <point x="110" y="636" type="line"/>
      <point x="378" y="596"/>
      <point x="484" y="536"/>
      <point x="484" y="370" type="curve" smooth="yes"/>
      <point x="484" y="190"/>
      <point x="416" y="100"/>
      <point x="416" y="-32" type="curve" smooth="yes"/>
      <point x="416" y="-158"/>
      <point x="480" y="-260"/>
      <point x="604" y="-260" type="curve"/>
    </contour>
  </outline>
</glyph>
<glyph name="bar" format="2">
  <advance width="476"/>
  <unicode hex="007C"/>
  <outline>
    <contour>
      <point x="219" y="1560" type="line"/>
      <point x="258" y="1560" type="line"/>
      <point x="258" y="-500" type="line"/>
      <point x="219" y="-500" type="line"/>
    </contour>
  </outline>
</glyph>
<glyph name="asciitilde" format="2">
  <advance width="2818"/>
  <unicode hex="007E"/>
  <outline>
    <contour>
      <point x="871" y="1729" type="curve" smooth="yes"/>
      <point x="659" y="1729"/>
      <point x="491" y="1639"/>
      <point x="491" y="1405" type="curve"/>
      <point x="410" y="1405" type="line"/>
      <point x="410" y="1876"/>
      <point x="655" y="2150"/>
      <point x="1020" y="2150" type="curve" smooth="yes"/>
      <point x="1471" y="2150"/>
      <point x="1502" y="1765"/>
      <point x="1905" y="1765" type="curve" smooth="yes"/>
      <point x="2158" y="1765"/>
      <point x="2328" y="1855"/>
      <point x="2328" y="2089" type="curve"/>
      <point x="2408" y="2089" type="line"/>
      <point x="2408" y="1618"/>
      <point x="2163" y="1344"/>
      <point x="1798" y="1344" type="curve" smooth="yes"/>
      <point x="1278" y="1344"/>
      <point x="1303" y="1729"/>
    </contour>
  </outline>
</glyph>
<glyph name="cent" format="2">
  <advance width="1059"/>
  <unicode hex="00A2"/>
  <outline>
    <contour>
      <point x="602" y="1110" type="line"/>
      <point x="602" y="-170" type="line"/>
      <point x="562" y="-170" type="line"/>
      <point x="562" y="1110" type="line"/>
    </contour>
    <component base="c"/>
  </outline>
</glyph>
<glyph name="sterling" format="2">
  <advance width="1311"/>
  <unicode hex="00A3"/>
  <outline>
    <contour>
      <point x="1264" y="434" type="line"/>
      <point x="1264" y="44"/>
      <point x="1122" y="-60"/>
      <point x="894" y="-60" type="curve" smooth="yes"/>
      <point x="620" y="-60"/>
      <point x="500" y="60"/>
      <point x="374" y="60" type="curve" smooth="yes"/>
      <point x="292" y="60"/>
      <point x="204" y="20"/>
      <point x="184" y="-40" type="curve"/>
      <point x="162" y="-40" type="line"/>
      <point x="192" y="108"/>
      <point x="348" y="314"/>
      <point x="544" y="314" type="curve" smooth="yes"/>
      <point x="724" y="314"/>
      <point x="804" y="246"/>
      <point x="936" y="246" type="curve" smooth="yes"/>
      <point x="1062" y="246"/>
      <point x="1224" y="270"/>
      <point x="1224" y="434" type="curve"/>
    </contour>
    <contour>
      <point x="930" y="810" type="line"/>
      <point x="930" y="770" type="line"/>
      <point x="30" y="770" type="line"/>
      <point x="30" y="810" type="line"/>
    </contour>
    <contour>
      <point x="196" y="1100" type="curve" smooth="yes"/>
      <point x="196" y="1380"/>
      <point x="416" y="1520"/>
      <point x="768" y="1520" type="curve" smooth="yes"/>
      <point x="1092" y="1520"/>
      <point x="1264" y="1331"/>
      <point x="1264" y="1167" type="curve" smooth="yes"/>
      <point x="1264" y="1055"/>
      <point x="1190" y="978"/>
      <point x="1095" y="978" type="curve" smooth="yes"/>
      <point x="1005" y="978"/>
      <point x="912" y="1040"/>
      <point x="912" y="1150" type="curve" smooth="yes"/>
      <point x="912" y="1250"/>
      <point x="998" y="1320"/>
      <point x="1086" y="1320" type="curve" smooth="yes"/>
      <point x="1120" y="1320"/>
      <point x="1142" y="1309"/>
      <point x="1150" y="1307" type="curve"/>
      <point x="1120" y="1361"/>
      <point x="1006" y="1469"/>
      <point x="828" y="1469" type="curve" smooth="yes"/>
      <point x="620" y="1469"/>
      <point x="538" y="1338"/>
      <point x="538" y="1170" type="curve" smooth="yes"/>
      <point x="538" y="972"/>
      <point x="650" y="880"/>
      <point x="650" y="710" type="curve" smooth="yes"/>
      <point x="650" y="340"/>
      <point x="158" y="340"/>
      <point x="184" y="-40" type="curve"/>
      <point x="144" y="-40" type="line"/>
      <point x="106" y="238"/>
      <point x="358" y="394"/>
      <point x="358" y="522" type="curve" smooth="yes"/>
      <point x="358" y="750"/>
      <point x="196" y="870"/>
    </contour>
  </outline>
</glyph>
<glyph name="section" format="2">
  <advance width="952"/>
  <unicode hex="00A7"/>
  <outline>
    <contour>
      <point x="270" y="1303" type="curve" smooth="yes"/>
      <point x="270" y="1081"/>
      <point x="875" y="1081"/>
      <point x="875" y="775" type="curve" smooth="yes"/>
      <point x="875" y="631"/>
      <point x="763" y="581"/>
      <point x="665" y="519" type="curve"/>
      <point x="631" y="525" type="line"/>
      <point x="659" y="559"/>
      <point x="703" y="591"/>
      <point x="703" y="661" type="curve" smooth="yes"/>
      <point x="703" y="883"/>
      <point x="134" y="832"/>
      <point x="134" y="1196" type="curve" smooth="yes"/>
      <point x="134" y="1404"/>
      <point x="309" y="1520"/>
      <point x="499" y="1520" type="curve" smooth="yes"/>
      <point x="665" y="1520"/>
      <point x="867" y="1453"/>
      <point x="867" y="1241" type="curve" smooth="yes"/>
      <point x="867" y="1149"/>
      <point x="807" y="1077"/>
      <point x="717" y="1077" type="curve" smooth="yes"/>
      <point x="637" y="1077"/>
      <point x="579" y="1137"/>
      <point x="579" y="1219" type="curve" smooth="yes"/>
      <point x="579" y="1293"/>
      <point x="645" y="1356"/>
      <point x="723" y="1356" type="curve" smooth="yes"/>
      <point x="753" y="1356"/>
      <point x="780" y="1342"/>
      <point x="788" y="1340" type="curve"/>
      <point x="737" y="1424"/>
      <point x="633" y="1478"/>
      <point x="499" y="1478" type="curve" smooth="yes"/>
      <point x="384" y="1478"/>
      <point x="270" y="1409"/>
    </contour>
    <contour>
      <point x="873" y="324" type="curve" smooth="yes"/>
      <point x="873" y="116"/>
      <point x="708" y="-20"/>
      <point x="458" y="-20" type="curve" smooth="yes"/>
      <point x="282" y="-20"/>
      <point x="60" y="50"/>
      <point x="60" y="262" type="curve" smooth="yes"/>
      <point x="60" y="354"/>
      <point x="120" y="426"/>
      <point x="210" y="426" type="curve" smooth="yes"/>
      <point x="290" y="426"/>
      <point x="348" y="366"/>
      <point x="348" y="284" type="curve" smooth="yes"/>
      <point x="348" y="210"/>
      <point x="285" y="151"/>
      <point x="207" y="151" type="curve" smooth="yes"/>
      <point x="177" y="151"/>
      <point x="150" y="165"/>
      <point x="142" y="167" type="curve"/>
      <point x="198" y="70"/>
      <point x="324" y="22"/>
      <point x="458" y="22" type="curve" smooth="yes"/>
      <point x="644" y="22"/>
      <point x="722" y="116"/>
      <point x="722" y="202" type="curve" smooth="yes"/>
      <point x="722" y="424"/>
      <point x="96" y="404"/>
      <point x="96" y="700" type="curve" smooth="yes"/>
      <point x="96" y="854"/>
      <point x="214" y="938"/>
      <point x="292" y="990" type="curve"/>
      <point x="330" y="990" type="line"/>
      <point x="322" y="966"/>
      <point x="278" y="924"/>
      <point x="278" y="844" type="curve" smooth="yes"/>
      <point x="278" y="622"/>
      <point x="873" y="688"/>
    </contour>
  </outline>
</glyph>
<glyph name="guillemotleft" format="2">
  <advance width="1449"/>
  <unicode hex="00AB"/>
  <outline>
    <contour>
      <point x="982" y="776" type="line"/>
      <point x="1350" y="310" type="line"/>
      <point x="1330" y="290" type="line"/>
      <point x="610" y="755" type="line"/>
      <point x="610" y="795" type="line"/>
      <point x="1330" y="1260" type="line"/>
      <point x="1350" y="1240" type="line"/>
    </contour>
    <contour>
      <point x="402" y="776" type="line"/>
      <point x="790" y="310" type="line"/>
      <point x="770" y="290" type="line"/>
      <point x="50" y="755" type="line"/>
      <point x="50" y="795" type="line"/>
      <point x="770" y="1260" type="line"/>
      <point x="790" y="1240" type="line"/>
    </contour>
  </outline>
</glyph>
<glyph name="acute" format="2">
  <advance width="819"/>
  <unicode hex="00B4"/>
  <outline>
    <contour>
      <point x="580" y="1400" type="curve" smooth="yes"/>
      <point x="121" y="1432" type="line"/>
      <point x="112" y="1469" type="line"/>
      <point x="560" y="1616" type="line" smooth="yes"/>
      <point x="638" y="1644"/>
      <point x="710" y="1578"/>
      <point x="710" y="1510" type="curve" smooth="yes"/>
      <point x="710" y="1442"/>
      <point x="648" y="1391"/>
    </contour>
  </outline>
</glyph>
<glyph name="mu" format="2">
  <advance width="1263"/>
  <unicode hex="00B5"/>
  <outline>
    <contour>
      <point x="523" y="-246" type="curve" smooth="yes"/>
      <point x="589" y="-246"/>
      <point x="641" y="-304"/>
      <point x="641" y="-380" type="curve" smooth="yes"/>
      <point x="641" y="-458"/>
      <point x="599" y="-520"/>
      <point x="453" y="-520" type="curve" smooth="yes"/>
      <point x="313" y="-520"/>
      <point x="193" y="-422"/>
      <point x="193" y="-242" type="curve" smooth="yes"/>
      <point x="193" y="642" type="line"/>
      <point x="232" y="642" type="line"/>
      <point x="232" y="-242" type="line" smooth="yes"/>
      <point x="232" y="-403"/>
      <point x="335" y="-489"/>
      <point x="478" y="-483" type="curve"/>
      <point x="478" y="-491" type="line"/>
      <point x="427" y="-460"/>
      <point x="404" y="-418"/>
      <point x="404" y="-362" type="curve" smooth="yes"/>
      <point x="404" y="-296"/>
      <point x="457" y="-246"/>
    </contour>
    <component base="u"/>
  </outline>
</glyph>
<glyph name="cedilla" format="2">
  <advance width="1099"/>
  <unicode hex="00B8"/>
  <outline>
    <contour>
      <point x="618" y="-276" type="curve" smooth="yes"/>
      <point x="618" y="-176"/>
      <point x="530" y="-158"/>
      <point x="430" y="-158" type="curve"/>
      <point x="609" y="82" type="line"/>
      <point x="659" y="82" type="line"/>
      <point x="539" y="-78" type="line"/>
      <point x="723" y="-84"/>
      <point x="840" y="-128"/>
      <point x="840" y="-240" type="curve" smooth="yes"/>
      <point x="840" y="-340"/>
      <point x="744" y="-431"/>
      <point x="442" y="-431" type="curve"/>
      <point x="442" y="-392" type="line"/>
      <point x="560" y="-392"/>
      <point x="618" y="-346"/>
    </contour>
  </outline>
</glyph>
<glyph name="threequarters" format="2">
  <advance width="1461"/>
  <unicode hex="00BE"/>
  <outline>
    <contour>
      <point x="1155" y="1300" type="line"/>
      <point x="1195" y="1300" type="line"/>
      <point x="237" y="-200" type="line"/>
      <point x="197" y="-200" type="line"/>
    </contour>
    <component base="three" xScale="0.6" yScale="0.6" xOffset="10" yOffset="708"/>
    <component base="four" xScale="0.6" yScale="0.6" xOffset="660" yOffset="-206"/>
  </outline>
</glyph>
<glyph name="AE" format="2">
  <advance width="2106"/>
  <unicode hex="00C6"/>
  <outline>
    <contour>
      <point x="1041" y="1500" type="line"/>
      <point x="1083" y="1500" type="line"/>
      <point x="229" y="0" type="line"/>
      <point x="183" y="0" type="line"/>
    </contour>
    <contour>
      <point x="30" y="40" type="line"/>
      <point x="470" y="40" type="line"/>
      <point x="470" y="0" type="line"/>
      <point x="30" y="0" type="line"/>
    </contour>
    <contour>
      <point x="491" y="510" type="line"/>
      <point x="1070" y="510" type="line"/>
      <point x="1070" y="471" type="line"/>
      <point x="482" y="471" type="line"/>
    </contour>
    <contour>
      <point x="1050" y="1500" type="line"/>
      <point x="1360" y="1500" type="line"/>
      <point x="1360" y="0" type="line"/>
      <point x="1050" y="0" type="line"/>
    </contour>
    <contour>
      <point x="1050" y="1500" type="line"/>
      <point x="2027" y="1500" type="line"/>
      <point x="2027" y="1090" type="line"/>
      <point x="1987" y="1090" type="line"/>
      <point x="1957" y="1304"/>
      <point x="1824" y="1460"/>
      <point x="1600" y="1460" type="curve" smooth="yes"/>
      <point x="1050" y="1460" type="line"/>
    </contour>
    <contour>
      <point x="2047" y="0" type="line"/>
      <point x="870" y="0" type="line"/>
      <point x="870" y="40" type="line"/>
      <point x="1580" y="40" type="line" smooth="yes"/>
      <point x="1844" y="40"/>
      <point x="1978" y="196"/>
      <point x="2008" y="450" type="curve"/>
      <point x="2047" y="450" type="line"/>
    </contour>
    <contour>
      <point x="1678" y="526" type="line"/>
      <point x="1648" y="660"/>
      <point x="1544" y="756"/>
      <point x="1430" y="756" type="curve" smooth="yes"/>
      <point x="1310" y="756" type="line"/>
      <point x="1310" y="796" type="line"/>
      <point x="1430" y="796" type="line" smooth="yes"/>
      <point x="1544" y="796"/>
      <point x="1648" y="882"/>
      <point x="1678" y="1016" type="curve"/>
      <point x="1717" y="1016" type="line"/>
      <point x="1717" y="526" type="line"/>
    </contour>
  </outline>
</glyph>
<glyph name="Thorn" format="2">
  <advance width="1339"/>
  <unicode hex="00DE"/>
  <outline>
    <contour>
      <point x="210" y="1500" type="line"/>
      <point x="520" y="1500" type="line"/>
      <point x="520" y="0" type="line"/>
      <point x="210" y="0" type="line"/>
    </contour>
    <contour>
      <point x="30" y="40" type="line"/>
      <point x="700" y="40" type="line"/>
      <point x="700" y="0" type="line"/>
      <point x="30" y="0" type="line"/>
    </contour>
    <contour>
      <point x="30" y="1500" type="line"/>
      <point x="700" y="1500" type="line"/>
      <point x="700" y="1460" type="line"/>
      <point x="30" y="1460" type="line"/>
    </contour>
    <contour>
      <point x="740" y="360" type="curve" smooth="yes"/>
      <point x="480" y="360" type="line"/>
      <point x="480" y="399" type="line"/>
      <point x="670" y="399" type="line" smooth="yes"/>
      <point x="862" y="399"/>
      <point x="930" y="602"/>
      <point x="930" y="780" type="curve" smooth="yes"/>
      <point x="930" y="958"/>
      <point x="862" y="1161"/>
      <point x="670" y="1161" type="curve" smooth="yes"/>
      <point x="480" y="1161" type="line"/>
      <point x="480" y="1200" type="line"/>
      <point x="740" y="1200" type="line" smooth="yes"/>
      <point x="1102" y="1200"/>
      <point x="1270" y="1040"/>
      <point x="1270" y="780" type="curve" smooth="yes"/>
      <point x="1270" y="520"/>
      <point x="1102" y="360"/>
    </contour>
  </outline>
</glyph>
<glyph name="germandbls" format="2">
  <advance width="1541"/>
  <unicode hex="00DF"/>
  <outline>
    <contour>
      <point x="806" y="805" type="curve"/>
      <point x="806" y="830" type="line"/>
      <point x="1024" y="830"/>
      <point x="1080" y="1014"/>
      <point x="1080" y="1142" type="curve" smooth="yes"/>
      <point x="1080" y="1286"/>
      <point x="1024" y="1483"/>
      <point x="826" y="1483" type="curve" smooth="yes"/>
      <point x="578" y="1483"/>
      <point x="510" y="1246"/>
      <point x="510" y="962" type="curve" smooth="yes"/>
      <point x="510" y="0" type="line"/>
      <point x="210" y="0" type="line"/>
      <point x="210" y="982" type="line" smooth="yes"/>
      <point x="210" y="1348"/>
      <point x="510" y="1520"/>
      <point x="836" y="1520" type="curve" smooth="yes"/>
      <point x="1122" y="1520"/>
      <point x="1402" y="1378"/>
      <point x="1402" y="1162" type="curve" smooth="yes"/>
      <point x="1402" y="942"/>
      <point x="1208" y="805"/>
    </contour>
    <contour>
      <point x="30" y="40" type="line"/>
      <point x="681" y="40" type="line"/>
      <point x="681" y="0" type="line"/>
      <point x="30" y="0" type="line"/>
    </contour>
    <contour>
      <point x="1462" y="350" type="curve" smooth="yes"/>
      <point x="1462" y="110"/>
      <point x="1234" y="-20"/>
      <point x="992" y="-20" type="curve" smooth="yes"/>
      <point x="810" y="-20"/>
      <point x="676" y="108"/>
      <point x="676" y="312" type="curve" smooth="yes"/>
      <point x="676" y="424"/>
      <point x="760" y="482"/>
      <point x="850" y="482" type="curve" smooth="yes"/>
      <point x="930" y="482"/>
      <point x="1008" y="432"/>
      <point x="1008" y="330" type="curve" smooth="yes"/>
      <point x="1008" y="236"/>
      <point x="922" y="180"/>
      <point x="844" y="180" type="curve" smooth="yes"/>
      <point x="793" y="180"/>
      <point x="745" y="209"/>
      <point x="731" y="246" type="curve"/>
      <point x="746" y="117"/>
      <point x="846" y="25"/>
      <point x="962" y="25" type="curve" smooth="yes"/>
      <point x="1110" y="25"/>
      <point x="1140" y="192"/>
      <point x="1140" y="320" type="curve" smooth="yes"/>
      <point x="1140" y="508"/>
      <point x="1104" y="791"/>
      <point x="806" y="791" type="curve"/>
      <point x="806" y="816" type="line"/>
      <point x="1288" y="816"/>
      <point x="1462" y="610"/>
    </contour>
  </outline>
</glyph>
<glyph name="ae" format="2">
  <advance width="1665"/>
  <unicode hex="00E6"/>
  <outline>
    <contour>
      <point x="140" y="722" type="curve" smooth="yes"/>
      <point x="140" y="851"/>
      <point x="314" y="936"/>
      <point x="516" y="936" type="curve" smooth="yes"/>
      <point x="776" y="936"/>
      <point x="882" y="792"/>
      <point x="882" y="610" type="curve"/>
      <point x="872" y="362" type="line"/>
      <point x="872" y="114"/>
      <point x="672" y="-20"/>
      <point x="440" y="-20" type="curve" smooth="yes"/>
      <point x="222" y="-20"/>
      <point x="70" y="58"/>
      <point x="70" y="226" type="curve" smooth="yes"/>
      <point x="70" y="394"/>
      <point x="224" y="522"/>
      <point x="508" y="522" type="curve" smooth="yes"/>
      <point x="816" y="522" type="line"/>
      <point x="816" y="482" type="line"/>
      <point x="578" y="482" type="line" smooth="yes"/>
      <point x="456" y="482"/>
      <point x="374" y="385"/>
      <point x="374" y="241" type="curve" smooth="yes"/>
      <point x="374" y="107"/>
      <point x="421" y="25"/>
      <point x="501" y="25" type="curve" smooth="yes"/>
      <point x="585" y="25"/>
      <point x="652" y="130"/>
      <point x="652" y="312" type="curve" smooth="yes"/>
      <point x="652" y="610" type="line" smooth="yes"/>
      <point x="652" y="744"/>
      <point x="623" y="890"/>
      <point x="463" y="890" type="curve" smooth="yes"/>
      <point x="395" y="890"/>
      <point x="351" y="874"/>
      <point x="324" y="855" type="curve"/>
      <point x="380" y="850"/>
      <point x="462" y="820"/>
      <point x="462" y="726" type="curve" smooth="yes"/>
      <point x="462" y="636"/>
      <point x="374" y="582"/>
      <point x="294" y="582" type="curve" smooth="yes"/>
      <point x="204" y="582"/>
      <point x="140" y="640"/>
    </contour>
    <contour>
      <point x="1317" y="542" type="line"/>
      <point x="1315" y="698"/>
      <point x="1303" y="900"/>
      <point x="1175" y="900" type="curve" smooth="yes"/>
      <point x="1037" y="900"/>
      <point x="1000" y="708"/>
      <point x="1000" y="480" type="curve" smooth="yes"/>
      <point x="1000" y="252"/>
      <point x="1037" y="30"/>
      <point x="1235" y="30" type="curve" smooth="yes"/>
      <point x="1401" y="30"/>
      <point x="1526" y="140"/>
      <point x="1576" y="286" type="curve"/>
      <point x="1616" y="286" type="line"/>
      <point x="1564" y="112"/>
      <point x="1423" y="-20"/>
      <point x="1181" y="-20" type="curve" smooth="yes"/>
      <point x="929" y="-20"/>
      <point x="750" y="150"/>
      <point x="750" y="460" type="curve" smooth="yes"/>
      <point x="750" y="770"/>
      <point x="923" y="940"/>
      <point x="1175" y="940" type="curve" smooth="yes"/>
      <point x="1473" y="940"/>
      <point x="1614" y="720"/>
      <point x="1614" y="502" type="curve"/>
      <point x="874" y="502" type="line"/>
      <point x="874" y="542" type="line"/>
    </contour>
  </outline>
</glyph>
<glyph name="eth" format="2">
  <advance width="1219"/>
  <unicode hex="00F0"/>
  <outline>
    <contour>
      <point x="260" y="1260" type="line"/>
      <point x="1150" y="1260" type="line"/>
      <point x="1150" y="1220" type="line"/>
      <point x="260" y="1220" type="line"/>
    </contour>
    <contour>
      <point x="1120" y="620" type="curve" smooth="yes"/>
      <point x="1120" y="200"/>
      <point x="904" y="-20"/>
      <point x="582" y="-20" type="curve" smooth="yes"/>
      <point x="260" y="-20"/>
      <point x="60" y="200"/>
      <point x="60" y="500" type="curve" smooth="yes"/>
      <point x="60" y="840"/>
      <point x="306" y="985"/>
      <point x="528" y="985" type="curve" smooth="yes"/>
      <point x="756" y="985"/>
      <point x="824" y="804"/>
      <point x="824" y="560" type="curve"/>
      <point x="790" y="560" type="line"/>
      <point x="790" y="821"/>
      <point x="713" y="925"/>
      <point x="587" y="925" type="curve" smooth="yes"/>
      <point x="459" y="925"/>
      <point x="390" y="818"/>
      <point x="390" y="500" type="curve" smooth="yes"/>
      <point x="390" y="222"/>
      <point x="418" y="20"/>
      <point x="576" y="20" type="curve" smooth="yes"/>
      <point x="734" y="20"/>
      <point x="790" y="242"/>
      <point x="790" y="560" type="curve"/>
      <point x="791" y="696" type="line"/>
      <point x="791" y="1055"/>
      <point x="568" y="1483"/>
      <point x="210" y="1483" type="curve"/>
      <point x="210" y="1520" type="line"/>
      <point x="723" y="1520"/>
      <point x="1120" y="1128"/>
    </contour>
  </outline>
</glyph>
<glyph name="divide" format="2">
  <advance width="2497"/>
  <unicode hex="00F7"/>
  <outline>
    <contour>
      <point x="184" y="1658" type="line"/>
      <point x="2313" y="1658" type="line"/>
      <point x="2313" y="1578" type="line"/>
      <point x="184" y="1578" type="line"/>
    </contour>
    <contour>
      <point x="880" y="799" type="curve" smooth="yes"/>
      <point x="880" y="1001"/>
      <point x="1047" y="1167"/>
      <point x="1249" y="1167" type="curve" smooth="yes"/>
      <point x="1451" y="1167"/>
      <point x="1618" y="1001"/>
      <point x="1618" y="799" type="curve" smooth="yes"/>
      <point x="1618" y="597"/>
      <point x="1451" y="430"/>
      <point x="1249" y="430" type="curve" smooth="yes"/>
      <point x="1047" y="430"/>
      <point x="880" y="597"/>
    </contour>
    <contour>
      <point x="880" y="2376" type="curve" smooth="yes"/>
      <point x="880" y="2578"/>
      <point x="1047" y="2744"/>
      <point x="1249" y="2744" type="curve" smooth="yes"/>
      <point x="1451" y="2744"/>
      <point x="1618" y="2578"/>
      <point x="1618" y="2376" type="curve" smooth="yes"/>
      <point x="1618" y="2174"/>
      <point x="1451" y="2008"/>
      <point x="1249" y="2008" type="curve" smooth="yes"/>
      <point x="1047" y="2008"/>
      <point x="880" y="2174"/>
    </contour>
  </outline>
</glyph>
<glyph name="thorn" format="2">
  <advance width="2600"/>
  <unicode hex="00FE"/>
  <outline>
    <contour>
      <point x="884" y="942" type="curve" smooth="yes"/>
      <point x="884" y="1529"/>
      <point x="1158" y="1921"/>
      <point x="1596" y="1921" type="curve" smooth="yes"/>
      <point x="2034" y="1921"/>
      <point x="2451" y="1556"/>
      <point x="2451" y="942" type="curve" smooth="yes"/>
      <point x="2451" y="328"/>
      <point x="2034" y="-41"/>
      <point x="1596" y="-41" type="curve" smooth="yes"/>
      <point x="1159" y="-41"/>
      <point x="884" y="355"/>
    </contour>
    <contour>
      <point x="948" y="942" type="curve" smooth="yes"/>
      <point x="948" y="387"/>
      <point x="1211" y="90"/>
      <point x="1454" y="90" type="curve" smooth="yes"/>
      <point x="1683" y="90"/>
      <point x="1801" y="360"/>
      <point x="1801" y="942" type="curve" smooth="yes"/>
      <point x="1801" y="1524"/>
      <point x="1683" y="1790"/>
      <point x="1454" y="1790" type="curve" smooth="yes"/>
      <point x="1211" y="1790"/>
      <point x="948" y="1495"/>
    </contour>
    <contour>
      <point x="89" y="-943" type="line"/>
      <point x="1236" y="-943" type="line"/>
      <point x="1236" y="-1024" type="line"/>
      <point x="89" y="-1024" type="line"/>
    </contour>
    <contour>
      <point x="375" y="2991" type="line"/>
      <point x="89" y="2991" type="line"/>
      <point x="89" y="3072" type="line"/>
      <point x="948" y="3072" type="line"/>
      <point x="948" y="-1024" type="line"/>
      <point x="375" y="-1024" type="line"/>
    </contour>
  </outline>
</glyph>
<glyph name="dotlessi" format="2">
  <advance width="665"/>
  <unicode hex="0131"/>
  <outline>
    <contour>
      <point x="53" y="40" type="line"/>
      <point x="613" y="40" type="line"/>
      <point x="613" y="0" type="line"/>
      <point x="53" y="0" type="line"/>
    </contour>
    <contour>
      <point x="193" y="880" type="line"/>
      <point x="53" y="880" type="line"/>
      <point x="53" y="920" type="line"/>
      <point x="473" y="920" type="line"/>
      <point x="473" y="0" type="line"/>
      <point x="193" y="0" type="line"/>
    </contour>
  </outline>
</glyph>
<glyph name="kgreenlandic" format="2">
  <advance width="1297"/>
  <unicode hex="0138"/>
  <outline>
    <contour>
      <point x="1194" y="0" type="line"/>
      <point x="852" y="0" type="line"/>
      <point x="454" y="534" type="line"/>
      <point x="996" y="920" type="line"/>
      <point x="1051" y="920" type="line"/>
      <point x="690" y="653" type="line"/>
    </contour>
    <contour>
      <point x="706" y="40" type="line"/>
      <point x="1270" y="40" type="line"/>
      <point x="1270" y="0" type="line"/>
      <point x="706" y="0" type="line"/>
    </contour>
    <contour>
      <point x="1172" y="880" type="line"/>
      <point x="726" y="880" type="line"/>
      <point x="726" y="920" type="line"/>
      <point x="1172" y="920" type="line"/>
    </contour>
    <contour>
      <point x="48" y="40" type="line"/>
      <point x="618" y="40" type="line"/>
      <point x="618" y="0" type="line"/>
      <point x="48" y="0" type="line"/>
    </contour>
    <contour>
      <point x="229" y="880" type="line"/>
      <point x="48" y="880" type="line"/>
      <point x="48" y="920" type="line"/>
      <point x="508" y="920" type="line"/>
      <point x="508" y="0" type="line"/>
      <point x="229" y="0" type="line"/>
    </contour>
  </outline>
</glyph>
<glyph name="Lslash" format="2">
  <advance width="1263"/>
  <unicode hex="0141"/>
  <outline>
    <contour>
      <point x="52" y="720" type="line"/>
      <point x="842" y="1160" type="line"/>
      <point x="842" y="1115" type="line"/>
      <point x="52" y="675" type="line"/>
    </contour>
    <component base="L"/>
  </outline>
</glyph>
<glyph name="lslash" format="2">
  <advance width="732"/>
  <unicode hex="0142"/>
  <outline>
    <contour>
      <point x="47" y="760" type="line"/>
      <point x="717" y="1160" type="line"/>
      <point x="717" y="1114" type="line"/>
      <point x="47" y="714" type="line"/>
    </contour>
    <component base="l"/>
  </outline>
</glyph>
<glyph name="OE" format="2">
  <advance width="4105"/>
  <unicode hex="0152"/>
  <outline>
    <contour>
      <point x="1643" y="2991" type="move"/>
    </contour>
    <contour>
      <point x="880" y="1536" type="curve" smooth="yes"/>
      <point x="880" y="730"/>
      <point x="1073" y="81"/>
      <point x="1643" y="81" type="curve"/>
      <point x="1561" y="0" type="line"/>
      <point x="730" y="0"/>
      <point x="164" y="623"/>
      <point x="164" y="1536" type="curve" smooth="yes"/>
      <point x="164" y="2449"/>
      <point x="730" y="3072"/>
      <point x="1561" y="3072" type="curve"/>
      <point x="1643" y="2991" type="line"/>
      <point x="1073" y="2991"/>
      <point x="880" y="2342"/>
    </contour>
    <component base="E" xOffset="1466"/>
  </outline>
</glyph>
<glyph name="uni0237" format="2">
  <advance width="671"/>
  <unicode hex="0237"/>
  <outline>
    <contour>
      <point x="507" y="920" type="line"/>
      <point x="507" y="-24" type="line" smooth="yes"/>
      <point x="507" y="-286"/>
      <point x="353" y="-520"/>
      <point x="73" y="-520" type="curve" smooth="yes"/>
      <point x="-109" y="-520"/>
      <point x="-233" y="-421"/>
      <point x="-233" y="-287" type="curve" smooth="yes"/>
      <point x="-233" y="-185"/>
      <point x="-159" y="-118"/>
      <point x="-69" y="-118" type="curve" smooth="yes"/>
      <point x="11" y="-118"/>
      <point x="93" y="-166"/>
      <point x="93" y="-266" type="curve" smooth="yes"/>
      <point x="93" y="-359"/>
      <point x="34" y="-417"/>
      <point x="-74" y="-417" type="curve" smooth="yes"/>
      <point x="-84" y="-417"/>
      <point x="-104" y="-415"/>
      <point x="-111" y="-410" type="curve"/>
      <point x="-92" y="-437"/>
      <point x="-39" y="-477"/>
      <point x="53" y="-477" type="curve" smooth="yes"/>
      <point x="263" y="-477"/>
      <point x="227" y="-214"/>
      <point x="227" y="40" type="curve" smooth="yes"/>
      <point x="227" y="880" type="line"/>
      <point x="52" y="880" type="line"/>
      <point x="52" y="920" type="line"/>
    </contour>
  </outline>
</glyph>
<glyph name="circumflex" format="2">
  <advance width="1740"/>
  <unicode hex="02C6"/>
  <outline>
    <contour>
      <point x="868" y="2867" type="line"/>
      <point x="245" y="2560" type="line"/>
      <point x="205" y="2601" type="line"/>
      <point x="696" y="3154" type="line"/>
      <point x="1045" y="3154" type="line"/>
      <point x="1536" y="2601" type="line"/>
      <point x="1496" y="2560" type="line"/>
    </contour>
  </outline>
</glyph>
<glyph name="caron" format="2">
  <advance width="849"/>
  <unicode hex="02C7"/>
  <outline>
    <contour>
      <point x="425" y="1430" type="line"/>
      <point x="730" y="1580" type="line"/>
      <point x="750" y="1560" type="line"/>
      <point x="510" y="1290" type="line"/>
      <point x="340" y="1290" type="line"/>
      <point x="100" y="1560" type="line"/>
      <point x="120" y="1580" type="line"/>
    </contour>
  </outline>
</glyph>
<glyph name="ring" format="2">
  <advance width="1310"/>
  <unicode hex="02DA"/>
  <outline>
    <contour>
      <point x="246" y="2785" type="curve" smooth="yes"/>
      <point x="246" y="2994"/>
      <point x="405" y="3154"/>
      <point x="655" y="3154" type="curve" smooth="yes"/>
      <point x="905" y="3154"/>
      <point x="1065" y="2994"/>
      <point x="1065" y="2785" type="curve" smooth="yes"/>
      <point x="1065" y="2576"/>
      <point x="905" y="2417"/>
      <point x="655" y="2417" type="curve" smooth="yes"/>
      <point x="405" y="2417"/>
      <point x="246" y="2576"/>
    </contour>
    <contour>
      <point x="496" y="2785" type="curve" smooth="yes"/>
      <point x="496" y="2603"/>
      <point x="545" y="2497"/>
      <point x="655" y="2497" type="curve" smooth="yes"/>
      <point x="765" y="2497"/>
      <point x="814" y="2603"/>
      <point x="814" y="2785" type="curve" smooth="yes"/>
      <point x="814" y="2967"/>
      <point x="765" y="3073"/>
      <point x="655" y="3073" type="curve" smooth="yes"/>
      <point x="545" y="3073"/>
      <point x="496" y="2967"/>
    </contour>
  </outline>
</glyph>
<glyph name="ogonek" format="2">
  <advance width="1099"/>
  <unicode hex="02DB"/>
  <outline>
    <contour>
      <point x="801" y="-246" type="line"/>
      <point x="771" y="-302"/>
      <point x="723" y="-392"/>
      <point x="551" y="-392" type="curve" smooth="yes"/>
      <point x="419" y="-392"/>
      <point x="305" y="-340"/>
      <point x="305" y="-220" type="curve" smooth="yes"/>
      <point x="305" y="-60"/>
      <point x="498" y="48"/>
      <point x="650" y="93" type="curve"/>
      <point x="663" y="69" type="line"/>
      <point x="621" y="45"/>
      <point x="571" y="-39"/>
      <point x="571" y="-160" type="curve" smooth="yes"/>
      <point x="571" y="-263"/>
      <point x="609" y="-316"/>
      <point x="667" y="-316" type="curve" smooth="yes"/>
      <point x="718" y="-316"/>
      <point x="745" y="-278"/>
      <point x="772" y="-230" type="curve"/>
    </contour>
  </outline>
</glyph>
<glyph name="tilde" format="2">
  <advance width="895"/>
  <unicode hex="02DC"/>
  <outline>
    <contour>
      <point x="252" y="1308" type="curve" smooth="yes"/>
      <point x="186" y="1308"/>
      <point x="139" y="1264"/>
      <point x="139" y="1190" type="curve"/>
      <point x="100" y="1190" type="line"/>
      <point x="100" y="1360"/>
      <point x="176" y="1484"/>
      <point x="304" y="1484" type="curve" smooth="yes"/>
      <point x="472" y="1484"/>
      <point x="525" y="1326"/>
      <point x="644" y="1326" type="curve" smooth="yes"/>
      <point x="715" y="1326"/>
      <point x="756" y="1370"/>
      <point x="756" y="1444" type="curve"/>
      <point x="796" y="1444" type="line"/>
      <point x="796" y="1254"/>
      <point x="760" y="1150"/>
      <point x="612" y="1150" type="curve" smooth="yes"/>
      <point x="449" y="1150"/>
      <point x="385" y="1308"/>
    </contour>
  </outline>
</glyph>
<glyph name="pi" format="2">
  <advance width="1261"/>
  <unicode hex="03C0"/>
  <outline>
    <contour>
      <point x="1192" y="206" type="line"/>
      <point x="1146" y="66"/>
      <point x="1067" y="-20"/>
      <point x="926" y="-20" type="curve" smooth="yes"/>
      <point x="792" y="-20"/>
      <point x="692" y="38"/>
      <point x="692" y="166" type="curve" smooth="yes"/>
      <point x="692" y="840" type="line"/>
      <point x="972" y="840" type="line"/>
      <point x="972" y="185" type="line" smooth="yes"/>
      <point x="972" y="145"/>
      <point x="995" y="109"/>
      <point x="1048" y="109" type="curve" smooth="yes"/>
      <point x="1092" y="109"/>
      <point x="1125" y="139"/>
      <point x="1164" y="223" type="curve"/>
    </contour>
    <contour>
      <point x="248" y="-20" type="curve" smooth="yes"/>
      <point x="146" y="-20"/>
      <point x="80" y="36"/>
      <point x="80" y="116" type="curve" smooth="yes"/>
      <point x="80" y="302"/>
      <point x="394" y="214"/>
      <point x="394" y="558" type="curve" smooth="yes"/>
      <point x="394" y="900" type="line"/>
      <point x="506" y="900" type="line"/>
      <point x="506" y="486" type="line" smooth="yes"/>
      <point x="506" y="170"/>
      <point x="414" y="-20"/>
    </contour>
    <contour>
      <point x="1152" y="920" type="line"/>
      <point x="1152" y="640" type="line"/>
      <point x="122" y="640" type="line"/>
      <point x="122" y="490" type="line"/>
      <point x="82" y="490" type="line"/>
      <point x="82" y="920" type="line"/>
    </contour>
  </outline>
</glyph>
<glyph name="uni1E9E" format="2">
  <advance width="1781"/>
  <unicode hex="1E9E"/>
  <outline>
    <contour>
      <point x="30" y="40" type="line"/>
      <point x="710" y="40" type="line"/>
      <point x="710" y="0" type="line"/>
      <point x="30" y="0" type="line"/>
    </contour>
    <contour>
      <point x="1216" y="772" type="line"/>
      <point x="1131" y="800"/>
      <point x="1034" y="816"/>
      <point x="916" y="830" type="curve"/>
      <point x="1376" y="1407" type="line"/>
      <point x="1303" y="1444"/>
      <point x="1194" y="1475"/>
      <point x="1056" y="1475" type="curve" smooth="yes"/>
      <point x="668" y="1475"/>
      <point x="530" y="1236"/>
      <point x="530" y="862" type="curve" smooth="yes"/>
      <point x="530" y="0" type="line"/>
      <point x="210" y="0" type="line"/>
      <point x="210" y="882" type="line" smooth="yes"/>
      <point x="210" y="1308"/>
      <point x="580" y="1520"/>
      <point x="1056" y="1520" type="curve" smooth="yes"/>
      <point x="1362" y="1520"/>
      <point x="1572" y="1388"/>
      <point x="1642" y="1312" type="curve"/>
    </contour>
    <contour>
      <point x="774" y="198" type="curve"/>
      <point x="798" y="142"/>
      <point x="912" y="29"/>
      <point x="1092" y="29" type="curve" smooth="yes"/>
      <point x="1305" y="29"/>
      <point x="1375" y="182"/>
      <point x="1375" y="400" type="curve" smooth="yes"/>
      <point x="1375" y="578"/>
      <point x="1304" y="792"/>
      <point x="916" y="792" type="curve"/>
      <point x="916" y="830" type="line"/>
      <point x="1528" y="830"/>
      <point x="1702" y="645"/>
      <point x="1702" y="405" type="curve" smooth="yes"/>
      <point x="1702" y="135"/>
      <point x="1454" y="-20"/>
      <point x="1152" y="-20" type="curve" smooth="yes"/>
      <point x="838" y="-20"/>
      <point x="690" y="158"/>
      <point x="690" y="322" type="curve" smooth="yes"/>
      <point x="690" y="434"/>
      <point x="765" y="507"/>
      <point x="865" y="507" type="curve" smooth="yes"/>
      <point x="955" y="507"/>
      <point x="1023" y="443"/>
      <point x="1023" y="341" type="curve" smooth="yes"/>
      <point x="1023" y="247"/>
      <point x="942" y="180"/>
      <point x="854" y="180" type="curve" smooth="yes"/>
      <point x="812" y="180"/>
      <point x="782" y="196"/>
    </contour>
  </outline>
</glyph>
<glyph name="uni203D" format="2">
  <advance width="1319"/>
  <unicode hex="203D"/>
  <outline>
    <contour>
      <point x="812" y="1038" type="curve" smooth="yes"/>
      <point x="790" y="846"/>
      <point x="664" y="626"/>
      <point x="664" y="486" type="curve"/>
      <point x="624" y="486" type="line"/>
      <point x="624" y="626"/>
      <point x="538" y="846"/>
      <point x="516" y="1038" type="curve" smooth="yes"/>
      <point x="514" y="1052"/>
      <point x="514" y="1064"/>
      <point x="514" y="1076" type="curve" smooth="yes"/>
      <point x="514" y="1132"/>
      <point x="550" y="1226"/>
      <point x="664" y="1226" type="curve" smooth="yes"/>
      <point x="778" y="1226"/>
      <point x="814" y="1132"/>
      <point x="814" y="1076" type="curve" smooth="yes"/>
      <point x="814" y="1064"/>
      <point x="814" y="1052"/>
    </contour>
    <contour>
      <point x="130" y="1112" type="curve" smooth="yes"/>
      <point x="130" y="1296"/>
      <point x="328" y="1520"/>
      <point x="682" y="1520" type="curve" smooth="yes"/>
      <point x="984" y="1520"/>
      <point x="1240" y="1370"/>
      <point x="1240" y="1100" type="curve" smooth="yes"/>
      <point x="1240" y="840"/>
      <point x="936" y="670"/>
      <point x="674" y="670" type="curve"/>
      <point x="674" y="698" type="line"/>
      <point x="838" y="720"/>
      <point x="978" y="934"/>
      <point x="978" y="1120" type="curve" smooth="yes"/>
      <point x="978" y="1308"/>
      <point x="854" y="1458"/>
      <point x="636" y="1458" type="curve" smooth="yes"/>
      <point x="368" y="1458"/>
      <point x="246" y="1308"/>
      <point x="216" y="1232" type="curve"/>
      <point x="224" y="1234"/>
      <point x="252" y="1250"/>
      <point x="294" y="1250" type="curve" smooth="yes"/>
      <point x="382" y="1250"/>
      <point x="438" y="1170"/>
      <point x="438" y="1100" type="curve" smooth="yes"/>
      <point x="438" y="990"/>
      <point x="354" y="938"/>
      <point x="284" y="938" type="curve" smooth="yes"/>
      <point x="204" y="938"/>
      <point x="130" y="1000"/>
    </contour>
    <component base="period" xOffset="378"/>
  </outline>
</glyph>
<glyph name="Euro" format="2">
  <advance width="1449"/>
  <unicode hex="20AC"/>
  <outline>
    <contour>
      <point x="1250" y="1348" type="curve"/>
      <point x="1207" y="1398"/>
      <point x="1106" y="1473"/>
      <point x="958" y="1473" type="curve" smooth="yes"/>
      <point x="670" y="1473"/>
      <point x="580" y="1138"/>
      <point x="580" y="750" type="curve" smooth="yes"/>
      <point x="580" y="322"/>
      <point x="692" y="41"/>
      <point x="920" y="41" type="curve" smooth="yes"/>
      <point x="1110" y="41"/>
      <point x="1242" y="190"/>
      <point x="1292" y="356" type="curve"/>
      <point x="1336" y="356" type="line"/>
      <point x="1284" y="162"/>
      <point x="1128" y="-20"/>
      <point x="866" y="-20" type="curve" smooth="yes"/>
      <point x="514" y="-20"/>
      <point x="220" y="290"/>
      <point x="220" y="750" type="curve" smooth="yes"/>
      <point x="220" y="1170"/>
      <point x="486" y="1520"/>
      <point x="918" y="1520" type="curve" smooth="yes"/>
      <point x="1192" y="1520"/>
      <point x="1360" y="1346"/>
      <point x="1360" y="1212" type="curve" smooth="yes"/>
      <point x="1360" y="1100"/>
      <point x="1286" y="1038"/>
      <point x="1196" y="1038" type="curve" smooth="yes"/>
      <point x="1116" y="1038"/>
      <point x="1032" y="1090"/>
      <point x="1032" y="1200" type="curve" smooth="yes"/>
      <point x="1032" y="1300"/>
      <point x="1108" y="1360"/>
      <point x="1196" y="1360" type="curve" smooth="yes"/>
      <point x="1218" y="1360"/>
      <point x="1238" y="1354"/>
    </contour>
    <component base="equal" xOffset="-60" yOffset="-140"/>
  </outline>
</glyph>
<glyph name="uni2116" format="2">
  <advance width="2323"/>
  <unicode hex="2116"/>
  <outline>
    <contour>
      <point x="1762" y="1140" type="curve" smooth="yes"/>
      <point x="1762" y="912"/>
      <point x="1801" y="791"/>
      <point x="1899" y="791" type="curve" smooth="yes"/>
      <point x="1997" y="791"/>
      <point x="2038" y="912"/>
      <point x="2038" y="1140" type="curve" smooth="yes"/>
      <point x="2038" y="1368"/>
      <point x="1997" y="1489"/>
      <point x="1899" y="1489" type="curve" smooth="yes"/>
      <point x="1801" y="1489"/>
      <point x="1762" y="1368"/>
    </contour>
    <contour>
      <point x="1532" y="1140" type="curve" smooth="yes"/>
      <point x="1532" y="1390"/>
      <point x="1687" y="1520"/>
      <point x="1899" y="1520" type="curve" smooth="yes"/>
      <point x="2111" y="1520"/>
      <point x="2268" y="1390"/>
      <point x="2268" y="1140" type="curve" smooth="yes"/>
      <point x="2268" y="890"/>
      <point x="2111" y="760"/>
      <point x="1899" y="760" type="curve" smooth="yes"/>
      <point x="1687" y="760"/>
      <point x="1532" y="890"/>
    </contour>
    <component base="hyphen" xOffset="1540" yOffset="80"/>
    <component base="N"/>
  </outline>
</glyph>
<glyph name="uniFB00" format="2">
  <advance width="1459"/>
  <unicode hex="FB00"/>
  <outline>
    <contour>
      <point x="42" y="40" type="line"/>
      <point x="1362" y="40" type="line"/>
      <point x="1362" y="0" type="line"/>
      <point x="42" y="0" type="line"/>
    </contour>
    <contour>
      <point x="42" y="920" type="line"/>
      <point x="1402" y="920" type="line"/>
      <point x="1402" y="880" type="line"/>
      <point x="42" y="880" type="line"/>
    </contour>
    <contour>
      <point x="924" y="1310" type="curve"/>
      <point x="907" y="1330"/>
      <point x="847" y="1377"/>
      <point x="749" y="1377" type="curve" smooth="yes"/>
      <point x="582" y="1377"/>
      <point x="491" y="1234"/>
      <point x="491" y="980" type="curve" smooth="yes"/>
      <point x="491" y="0" type="line"/>
      <point x="222" y="0" type="line"/>
      <point x="222" y="924" type="line" smooth="yes"/>
      <point x="222" y="1206"/>
      <point x="433" y="1420"/>
      <point x="739" y="1420" type="curve" smooth="yes"/>
      <point x="915" y="1420"/>
      <point x="1039" y="1299"/>
      <point x="1039" y="1185" type="curve" smooth="yes"/>
      <point x="1039" y="1083"/>
      <point x="975" y="1021"/>
      <point x="885" y="1021" type="curve" smooth="yes"/>
      <point x="805" y="1021"/>
      <point x="723" y="1071"/>
      <point x="723" y="1170" type="curve" smooth="yes"/>
      <point x="723" y="1267"/>
      <point x="788" y="1322"/>
      <point x="869" y="1322" type="curve" smooth="yes"/>
      <point x="902" y="1322"/>
      <point x="920" y="1312"/>
    </contour>
    <contour>
      <point x="1516" y="1413" type="curve"/>
      <point x="1494" y="1440"/>
      <point x="1434" y="1479"/>
      <point x="1348" y="1479" type="curve" smooth="yes"/>
      <point x="1188" y="1479"/>
      <point x="1124" y="1334"/>
      <point x="1124" y="1080" type="curve" smooth="yes"/>
      <point x="1124" y="0" type="line"/>
      <point x="854" y="0" type="line"/>
      <point x="854" y="1024" type="line" smooth="yes"/>
      <point x="854" y="1306"/>
      <point x="1048" y="1520"/>
      <point x="1338" y="1520" type="curve" smooth="yes"/>
      <point x="1510" y="1520"/>
      <point x="1614" y="1406"/>
      <point x="1614" y="1292" type="curve" smooth="yes"/>
      <point x="1614" y="1190"/>
      <point x="1550" y="1128"/>
      <point x="1460" y="1128" type="curve" smooth="yes"/>
      <point x="1380" y="1128"/>
      <point x="1298" y="1178"/>
      <point x="1298" y="1277" type="curve" smooth="yes"/>
      <point x="1298" y="1374"/>
      <point x="1363" y="1429"/>
      <point x="1441" y="1429" type="curve" smooth="yes"/>
      <point x="1479" y="1429"/>
      <point x="1510" y="1419"/>
    </contour>
  </outline>
</glyph>
<glyph name="uniFB01" format="2">
  <advance width="1305"/>
  <unicode hex="FB01"/>
  <outline>
    <contour>
      <point x="222" y="1024" type="line" smooth="yes"/>
      <point x="222" y="1316"/>
      <point x="431" y="1520"/>
      <point x="780" y="1520" type="curve" smooth="yes"/>
      <point x="988" y="1520"/>
      <point x="1109" y="1412"/>
      <point x="1109" y="1287" type="curve" smooth="yes"/>
      <point x="1109" y="1185"/>
      <point x="1045" y="1123"/>
      <point x="955" y="1123" type="curve" smooth="yes"/>
      <point x="874" y="1123"/>
      <point x="793" y="1173"/>
      <point x="793" y="1271" type="curve" smooth="yes"/>
      <point x="793" y="1367"/>
      <point x="859" y="1422"/>
      <point x="937" y="1422" type="curve" smooth="yes"/>
      <point x="978" y="1422"/>
      <point x="996" y="1410"/>
      <point x="1002" y="1405" type="curve"/>
      <point x="976" y="1435"/>
      <point x="909" y="1479"/>
      <point x="780" y="1479" type="curve" smooth="yes"/>
      <point x="567" y="1479"/>
      <point x="491" y="1334"/>
      <point x="491" y="1080" type="curve" smooth="yes"/>
      <point x="491" y="0" type="line"/>
      <point x="222" y="0" type="line"/>
    </contour>
    <contour>
      <point x="42" y="40" type="line"/>
      <point x="1244" y="40" type="line"/>
      <point x="1244" y="0" type="line"/>
      <point x="42" y="0" type="line"/>
    </contour>
    <contour>
      <point x="824" y="880" type="line"/>
      <point x="42" y="880" type="line"/>
      <point x="42" y="920" type="line"/>
      <point x="1104" y="920" type="line"/>
      <point x="1104" y="0" type="line"/>
      <point x="824" y="0" type="line"/>
    </contour>
  </outline>
</glyph>
<glyph name="uniFB02" format="2">
  <advance width="1400"/>
  <unicode hex="FB02"/>
  <outline>
    <contour>
      <point x="42" y="40" type="line"/>
      <point x="1349" y="40" type="line"/>
      <point x="1349" y="0" type="line"/>
      <point x="42" y="0" type="line"/>
    </contour>
    <contour>
      <point x="42" y="920" type="line"/>
      <point x="770" y="920" type="line"/>
      <point x="770" y="880" type="line"/>
      <point x="42" y="880" type="line"/>
    </contour>
    <contour>
      <point x="899" y="1460" type="line"/>
      <point x="1179" y="1540" type="line"/>
      <point x="1179" y="0" type="line"/>
      <point x="899" y="0" type="line"/>
    </contour>
    <contour>
      <point x="889" y="1416" type="curve"/>
      <point x="866" y="1442"/>
      <point x="808" y="1480"/>
      <point x="723" y="1480" type="curve" smooth="yes"/>
      <point x="553" y="1480"/>
      <point x="491" y="1334"/>
      <point x="491" y="1080" type="curve" smooth="yes"/>
      <point x="491" y="0" type="line"/>
      <point x="222" y="0" type="line"/>
      <point x="222" y="1024" type="line" smooth="yes"/>
      <point x="222" y="1306"/>
      <point x="422" y="1520"/>
      <point x="712" y="1520" type="curve" smooth="yes"/>
      <point x="884" y="1520"/>
      <point x="990" y="1411"/>
      <point x="990" y="1292" type="curve" smooth="yes"/>
      <point x="990" y="1190"/>
      <point x="926" y="1128"/>
      <point x="836" y="1128" type="curve" smooth="yes"/>
      <point x="756" y="1128"/>
      <point x="674" y="1176"/>
      <point x="674" y="1276" type="curve" smooth="yes"/>
      <point x="674" y="1374"/>
      <point x="740" y="1430"/>
      <point x="820" y="1430" type="curve" smooth="yes"/>
      <point x="855" y="1430"/>
      <point x="886" y="1418"/>
    </contour>
  </outline>
</glyph>
<glyph name="uniFB03" format="2">
  <advance width="1917"/>
  <unicode hex="FB03"/>
  <outline>
    <contour>
      <point x="834" y="1025" type="line" smooth="yes"/>
      <point x="834" y="1317"/>
      <point x="1048" y="1521"/>
      <point x="1394" y="1521" type="curve" smooth="yes"/>
      <point x="1602" y="1521"/>
      <point x="1722" y="1412"/>
      <point x="1722" y="1287" type="curve" smooth="yes"/>
      <point x="1722" y="1185"/>
      <point x="1658" y="1123"/>
      <point x="1568" y="1123" type="curve" smooth="yes"/>
      <point x="1487" y="1123"/>
      <point x="1406" y="1173"/>
      <point x="1406" y="1271" type="curve" smooth="yes"/>
      <point x="1406" y="1367"/>
      <point x="1471" y="1423"/>
      <point x="1549" y="1423" type="curve" smooth="yes"/>
      <point x="1587" y="1423"/>
      <point x="1610" y="1410"/>
      <point x="1614" y="1405" type="curve"/>
      <point x="1590" y="1435"/>
      <point x="1523" y="1480"/>
      <point x="1394" y="1480" type="curve" smooth="yes"/>
      <point x="1183" y="1480"/>
      <point x="1104" y="1345"/>
      <point x="1104" y="1081" type="curve" smooth="yes"/>
      <point x="1104" y="1" type="line"/>
      <point x="834" y="1" type="line"/>
    </contour>
    <contour>
      <point x="42" y="40" type="line"/>
      <point x="1856" y="40" type="line"/>
      <point x="1856" y="0" type="line"/>
      <point x="42" y="0" type="line"/>
    </contour>
    <contour>
      <point x="222" y="924" type="line" smooth="yes"/>
      <point x="222" y="1204"/>
      <point x="430" y="1420"/>
      <point x="739" y="1420" type="curve" smooth="yes"/>
      <point x="915" y="1420"/>
      <point x="1039" y="1304"/>
      <point x="1039" y="1185" type="curve" smooth="yes"/>
      <point x="1039" y="1083"/>
      <point x="975" y="1021"/>
      <point x="885" y="1021" type="curve" smooth="yes"/>
      <point x="805" y="1021"/>
      <point x="723" y="1071"/>
      <point x="723" y="1170" type="curve" smooth="yes"/>
      <point x="723" y="1267"/>
      <point x="788" y="1324"/>
      <point x="866" y="1324" type="curve" smooth="yes"/>
      <point x="904" y="1324"/>
      <point x="920" y="1314"/>
      <point x="926" y="1308" type="curve"/>
      <point x="909" y="1330"/>
      <point x="847" y="1377"/>
      <point x="749" y="1377" type="curve" smooth="yes"/>
      <point x="580" y="1377"/>
      <point x="491" y="1234"/>
      <point x="491" y="980" type="curve" smooth="yes"/>
      <point x="491" y="0" type="line"/>
      <point x="222" y="0" type="line"/>
    </contour>
    <contour>
      <point x="1437" y="880" type="line"/>
      <point x="42" y="880" type="line"/>
      <point x="42" y="920" type="line"/>
      <point x="1716" y="920" type="line"/>
      <point x="1716" y="0" type="line"/>
      <point x="1437" y="0" type="line"/>
    </contour>
  </outline>
</glyph>
<glyph name="uniFB04" format="2">
  <advance width="2014"/>
  <unicode hex="FB04"/>
  <outline>
    <contour>
      <point x="42" y="40" type="line"/>
      <point x="1972" y="40" type="line"/>
      <point x="1972" y="0" type="line"/>
      <point x="42" y="0" type="line"/>
    </contour>
    <contour>
      <point x="42" y="920" type="line"/>
      <point x="1392" y="920" type="line"/>
      <point x="1392" y="880" type="line"/>
      <point x="42" y="880" type="line"/>
    </contour>
    <contour>
      <point x="1521" y="1460" type="line"/>
      <point x="1801" y="1540" type="line"/>
      <point x="1801" y="0" type="line"/>
      <point x="1521" y="0" type="line"/>
    </contour>
    <contour>
      <point x="914" y="1310" type="curve"/>
      <point x="894" y="1332"/>
      <point x="840" y="1377"/>
      <point x="742" y="1377" type="curve" smooth="yes"/>
      <point x="578" y="1377"/>
      <point x="491" y="1234"/>
      <point x="491" y="980" type="curve" smooth="yes"/>
      <point x="491" y="0" type="line"/>
      <point x="222" y="0" type="line"/>
      <point x="222" y="924" type="line" smooth="yes"/>
      <point x="222" y="1205"/>
      <point x="427" y="1420"/>
      <point x="731" y="1420" type="curve" smooth="yes"/>
      <point x="907" y="1420"/>
      <point x="1029" y="1299"/>
      <point x="1029" y="1185" type="curve" smooth="yes"/>
      <point x="1029" y="1083"/>
      <point x="965" y="1021"/>
      <point x="875" y="1021" type="curve" smooth="yes"/>
      <point x="795" y="1021"/>
      <point x="713" y="1071"/>
      <point x="713" y="1170" type="curve" smooth="yes"/>
      <point x="713" y="1267"/>
      <point x="778" y="1322"/>
      <point x="856" y="1322" type="curve" smooth="yes"/>
      <point x="893" y="1322"/>
      <point x="909" y="1313"/>
    </contour>
    <contour>
      <point x="1511" y="1413" type="curve"/>
      <point x="1497" y="1435"/>
      <point x="1435" y="1480"/>
      <point x="1345" y="1480" type="curve" smooth="yes"/>
      <point x="1175" y="1480"/>
      <point x="1114" y="1334"/>
      <point x="1114" y="1080" type="curve" smooth="yes"/>
      <point x="1114" y="0" type="line"/>
      <point x="844" y="0" type="line"/>
      <point x="844" y="1024" type="line" smooth="yes"/>
      <point x="844" y="1306"/>
      <point x="1045" y="1520"/>
      <point x="1335" y="1520" type="curve" smooth="yes"/>
      <point x="1507" y="1520"/>
      <point x="1610" y="1411"/>
      <point x="1610" y="1292" type="curve" smooth="yes"/>
      <point x="1610" y="1190"/>
      <point x="1546" y="1128"/>
      <point x="1456" y="1128" type="curve" smooth="yes"/>
      <point x="1376" y="1128"/>
      <point x="1294" y="1176"/>
      <point x="1294" y="1276" type="curve" smooth="yes"/>
      <point x="1294" y="1374"/>
      <point x="1359" y="1430"/>
      <point x="1440" y="1430" type="curve" smooth="yes"/>
      <point x="1475" y="1430"/>
      <point x="1508" y="1417"/>
    </contour>
  </outline>
</glyph>
<glyph name="J.alt" format="2">
  <advance width="1266"/>
  <outline>
    <contour>
      <point x="477" y="1500" type="line"/>
      <point x="1237" y="1500" type="line"/>
      <point x="1237" y="1460" type="line"/>
      <point x="477" y="1460" type="line"/>
    </contour>
    <contour>
      <point x="727" y="1500" type="line"/>
      <point x="1037" y="1500" type="line"/>
      <point x="1037" y="450" type="line"/>
      <point x="977" y="170"/>
      <point x="809" y="-40"/>
      <point x="457" y="-40" type="curve" smooth="yes"/>
      <point x="193" y="-40"/>
      <point x="35" y="150"/>
      <point x="35" y="330" type="curve" smooth="yes"/>
      <point x="35" y="484"/>
      <point x="139" y="570"/>
      <point x="249" y="570" type="curve" smooth="yes"/>
      <point x="349" y="570"/>
      <point x="431" y="504"/>
      <point x="431" y="387" type="curve" smooth="yes"/>
      <point x="431" y="287"/>
      <point x="349" y="205"/>
      <point x="242" y="205" type="curve" smooth="yes"/>
      <point x="181" y="205"/>
      <point x="129" y="235"/>
      <point x="93" y="273" type="curve"/>
      <point x="113" y="143"/>
      <point x="235" y="2"/>
      <point x="437" y="2" type="curve" smooth="yes"/>
      <point x="649" y="2"/>
      <point x="727" y="160"/>
      <point x="727" y="440" type="curve" smooth="yes"/>
    </contour>
  </outline>
</glyph>
<glyph name="R.alt" format="2">
  <advance width="3031"/>
  <outline>
    <contour>
      <point x="1528" y="1554" type="curve" smooth="yes"/>
      <point x="832" y="1554" type="line"/>
      <point x="832" y="1604" type="line"/>
      <point x="1426" y="1604" type="line" smooth="yes"/>
      <point x="1819" y="1604"/>
      <point x="2020" y="1814"/>
      <point x="2020" y="2301" type="curve" smooth="yes"/>
      <point x="2020" y="2788"/>
      <point x="1819" y="2990"/>
      <point x="1426" y="2990" type="curve" smooth="yes"/>
      <point x="94" y="2990" type="line"/>
      <point x="94" y="3072" type="line"/>
      <point x="1528" y="3072" type="line" smooth="yes"/>
      <point x="2208" y="3072"/>
      <point x="2675" y="2833"/>
      <point x="2675" y="2301" type="curve" smooth="yes"/>
      <point x="2675" y="1769"/>
      <point x="2248" y="1554"/>
    </contour>
    <contour>
      <point x="94" y="82" type="line"/>
      <point x="1548" y="82" type="line"/>
      <point x="1548" y="0" type="line"/>
      <point x="94" y="0" type="line"/>
    </contour>
    <contour>
      <point x="504" y="3072" type="line"/>
      <point x="1139" y="3072" type="line"/>
      <point x="1139" y="0" type="line"/>
      <point x="504" y="0" type="line"/>
    </contour>
    <contour>
      <point x="2962" y="0" type="line"/>
      <point x="2896" y="0"/>
      <point x="2659" y="0"/>
      <point x="2512" y="0" type="curve" smooth="yes"/>
      <point x="1435" y="0"/>
      <point x="2414" y="1523"/>
      <point x="1406" y="1523" type="curve" smooth="yes"/>
      <point x="832" y="1523" type="line"/>
      <point x="832" y="1566" type="line"/>
      <point x="1733" y="1566" type="line" smooth="yes"/>
      <point x="3117" y="1566"/>
      <point x="2294" y="82"/>
      <point x="2818" y="82" type="curve" smooth="yes"/>
      <point x="2904" y="82"/>
      <point x="2905" y="82"/>
      <point x="2962" y="82" type="curve"/>
    </contour>
  </outline>
</glyph>
<glyph name="fj.lig" format="2">
  <advance width="1244"/>
  <outline>
    <contour>
      <point x="42" y="40" type="line"/>
      <point x="677" y="40" type="line"/>
      <point x="677" y="0" type="line"/>
      <point x="42" y="0" type="line"/>
    </contour>
    <contour>
      <point x="1087" y="-24" type="line" smooth="yes"/>
      <point x="1087" y="-286"/>
      <point x="933" y="-520"/>
      <point x="653" y="-520" type="curve" smooth="yes"/>
      <point x="471" y="-520"/>
      <point x="347" y="-421"/>
      <point x="347" y="-287" type="curve" smooth="yes"/>
      <point x="347" y="-185"/>
      <point x="421" y="-118"/>
      <point x="511" y="-118" type="curve" smooth="yes"/>
      <point x="591" y="-118"/>
      <point x="673" y="-166"/>
      <point x="673" y="-266" type="curve" smooth="yes"/>
      <point x="673" y="-364"/>
      <point x="609" y="-417"/>
      <point x="505" y="-417" type="curve" smooth="yes"/>
      <point x="492" y="-417"/>
      <point x="476" y="-415"/>
      <point x="469" y="-410" type="curve"/>
      <point x="487" y="-437"/>
      <point x="542" y="-477"/>
      <point x="633" y="-477" type="curve" smooth="yes"/>
      <point x="843" y="-477"/>
      <point x="807" y="-214"/>
      <point x="807" y="40" type="curve" smooth="yes"/>
      <point x="807" y="880" type="line"/>
      <point x="42" y="880" type="line"/>
      <point x="42" y="920" type="line"/>
      <point x="1087" y="920" type="line"/>
    </contour>
    <contour>
      <point x="987" y="1408" type="curve"/>
      <point x="960" y="1440"/>
      <point x="892" y="1479"/>
      <point x="766" y="1479" type="curve" smooth="yes"/>
      <point x="562" y="1479"/>
      <point x="492" y="1334"/>
      <point x="492" y="1080" type="curve" smooth="yes"/>
      <point x="492" y="0" type="line"/>
      <point x="222" y="0" type="line"/>
      <point x="222" y="1024" type="line" smooth="yes"/>
      <point x="222" y="1316"/>
      <point x="416" y="1520"/>
      <point x="766" y="1520" type="curve" smooth="yes"/>
      <point x="978" y="1520"/>
      <point x="1092" y="1411"/>
      <point x="1092" y="1287" type="curve" smooth="yes"/>
      <point x="1092" y="1185"/>
      <point x="1028" y="1124"/>
      <point x="938" y="1124" type="curve" smooth="yes"/>
      <point x="858" y="1124"/>
      <point x="775" y="1171"/>
      <point x="775" y="1271" type="curve" smooth="yes"/>
      <point x="775" y="1364"/>
      <point x="844" y="1422"/>
      <point x="923" y="1422" type="curve" smooth="yes"/>
      <point x="964" y="1422"/>
      <point x="982" y="1411"/>
    </contour>
  </outline>
</glyph>
<glyph name="four.alt" format="2">
  <advance width="1309"/>
  <outline>
    <contour>
      <point x="1180" y="40" type="line"/>
      <point x="1180" y="0" type="line"/>
      <point x="530" y="0" type="line"/>
      <point x="530" y="40" type="line"/>
    </contour>
    <contour>
      <point x="1030" y="996" type="curve"/>
      <point x="1030" y="-1" type="line"/>
      <point x="720" y="-1" type="line"/>
      <point x="720" y="906" type="line"/>
      <point x="810" y="906"/>
      <point x="970" y="956"/>
    </contour>
    <contour>
      <point x="101" y="405" type="curve"/>
      <point x="1210" y="405" type="line"/>
      <point x="1210" y="366" type="line"/>
      <point x="30" y="366" type="line"/>
      <point x="310" y="766"/>
      <point x="620" y="1200"/>
      <point x="660" y="1500" type="curve"/>
      <point x="996" y="1500" type="line"/>
      <point x="958" y="1160"/>
      <point x="383" y="793"/>
    </contour>
  </outline>
</glyph>
